<?xml version="1.0" encoding="utf-8"?>
<!-- Generator: Adobe Illustrator 26.1.0, SVG Export Plug-In . SVG Version: 6.00 Build 0)  -->
<svg version="1.1" xmlns="http://www.w3.org/2000/svg" xmlns:xlink="http://www.w3.org/1999/xlink" x="0px" y="0px" width="820px"
	 height="271.26px" viewBox="0 0 820 271.26" style="enable-background:new 0 0 820 271.26;" xml:space="preserve">
<style type="text/css">
	.st0{fill:#333333;}
	.st1{fill:url(#SVGID_1_);}
	.st2{fill:url(#SVGID_00000036219343465466878860000007855861275963249030_);}
	.st3{fill:url(#SVGID_00000007389980501695381090000010623999511582862763_);}
	.st4{fill:url(#SVGID_00000116937650079051746690000013068070247114448287_);}
	.st5{opacity:0.3;fill:url(#SVGID_00000014612823635748412070000014315256903554753192_);}
</style>
<g id="MAIN_GRAPHICS">
</g>
<g id="Layer_2_copy">
	<g>
		<rect x="145.458" y="144.022" class="st0" width="3" height="44.631"/>
		<g>
			<polygon class="st0" points="154.438,147.711 146.959,134.758 139.479,147.711 			"/>
		</g>
	</g>
	<g>
		<rect x="309.069" y="144.022" class="st0" width="3" height="44.631"/>
		<g>
			<polygon class="st0" points="318.048,147.711 310.569,134.758 303.089,147.711 			"/>
		</g>
	</g>
	<g>
		<rect x="480.66" y="144.022" class="st0" width="3" height="44.631"/>
		<g>
			<polygon class="st0" points="489.64,147.711 482.16,134.758 474.681,147.711 			"/>
		</g>
	</g>
	<g>
		<path class="st0" d="M649.761,188.653c-0.828,0-1.5-0.671-1.5-1.5v-41.631c0-0.829,0.672-1.5,1.5-1.5s1.5,0.671,1.5,1.5v41.631
			C651.261,187.982,650.589,188.653,649.761,188.653z"/>
		<g>
			<polygon class="st0" points="657.24,147.711 649.761,134.758 642.281,147.711 			"/>
		</g>
	</g>
	<g>
		<g>
			<path class="st0" d="M628.236,76.266c-0.327,0-0.647-0.16-0.84-0.455c-0.301-0.463-0.169-1.083,0.294-1.383
				c4.468-2.904,13.59-4.708,23.807-4.708c10.032,0,19.079,1.756,23.61,4.584c0.469,0.292,0.611,0.909,0.319,1.377
				c-0.292,0.468-0.907,0.612-1.378,0.319c-4.167-2.6-13.02-4.28-22.552-4.28c-9.702,0-18.619,1.721-22.717,4.385
				C628.612,76.214,628.423,76.266,628.236,76.266z"/>
			<path class="st0" d="M651.497,87.651c-10.158,0-19.256-1.789-23.744-4.668c-0.465-0.298-0.6-0.917-0.302-1.382
				c0.299-0.465,0.917-0.6,1.382-0.302c4.12,2.644,13.017,4.352,22.664,4.352c9.61,0,18.492-1.699,22.628-4.329
				c0.466-0.297,1.084-0.159,1.38,0.307c0.297,0.466,0.159,1.084-0.308,1.38C670.695,85.873,661.614,87.651,651.497,87.651z"/>
			<path class="st0" d="M636.89,97.665c-0.546,0-0.992-0.438-1-0.985c-0.078-5.349,2.927-13.961,7.842-22.477
				c4.935-8.546,10.908-15.464,15.588-18.054c0.482-0.268,1.092-0.092,1.359,0.391c0.268,0.483,0.093,1.092-0.391,1.359
				c-4.314,2.387-10.133,9.18-14.824,17.304c-4.745,8.221-7.647,16.439-7.574,21.448c0.008,0.552-0.433,1.006-0.985,1.015
				C636.899,97.665,636.895,97.665,636.89,97.665z"/>
			<path class="st0" d="M643.134,101.378c-0.354,0-0.697-0.188-0.879-0.521c-0.265-0.484-0.086-1.092,0.398-1.357
				c4.322-2.362,10.162-9.166,14.876-17.333c4.704-8.147,7.677-16.595,7.573-21.523c-0.012-0.552,0.427-1.009,0.979-1.021
				c0.589-0.002,1.01,0.427,1.021,0.979c0.112,5.348-2.893,13.995-7.841,22.565c-4.96,8.592-10.957,15.523-15.649,18.087
				C643.46,101.339,643.296,101.378,643.134,101.378z"/>
			<path class="st0" d="M666.104,97.648c-0.004,0-0.009,0-0.014,0c-0.552-0.007-0.994-0.461-0.986-1.014
				c0.067-5.01-2.835-13.223-7.574-21.433c-4.755-8.237-10.627-15.058-14.96-17.377c-0.487-0.261-0.671-0.867-0.41-1.354
				c0.261-0.486,0.864-0.67,1.354-0.41c4.71,2.522,10.745,9.473,15.749,18.141c4.909,8.504,7.914,17.11,7.842,22.46
				C667.096,97.209,666.649,97.648,666.104,97.648z"/>
			<path class="st0" d="M659.527,101.19c-0.172,0-0.346-0.044-0.504-0.137c-4.625-2.706-10.484-9.559-15.292-17.885
				c-4.989-8.642-7.993-17.33-7.838-22.672c0.017-0.542,0.461-0.971,0.999-0.971c0.011,0,0.021,0,0.03,0
				c0.552,0.016,0.986,0.477,0.971,1.029c-0.144,4.917,2.828,13.401,7.57,21.614c4.645,8.043,10.227,14.618,14.569,17.159
				c0.477,0.279,0.637,0.892,0.358,1.368C660.205,101.013,659.871,101.19,659.527,101.19z"/>
		</g>
		<path class="st0" d="M638.881,61.862c-2.772,0-5.028-2.255-5.028-5.028s2.256-5.028,5.028-5.028s5.028,2.255,5.028,5.028
			S641.653,61.862,638.881,61.862z M638.881,53.606c-1.78,0-3.228,1.448-3.228,3.228s1.447,3.228,3.228,3.228
			s3.228-1.448,3.228-3.228S640.661,53.606,638.881,53.606z"/>
		<path class="st0" d="M664.112,61.862c-2.772,0-5.028-2.255-5.028-5.028s2.256-5.028,5.028-5.028s5.028,2.255,5.028,5.028
			S666.885,61.862,664.112,61.862z M664.112,53.606c-1.78,0-3.228,1.448-3.228,3.228s1.447,3.228,3.228,3.228
			s3.228-1.448,3.228-3.228S665.893,53.606,664.112,53.606z"/>
		<path class="st0" d="M638.881,105.565c-2.772,0-5.028-2.256-5.028-5.028s2.256-5.028,5.028-5.028s5.028,2.255,5.028,5.028
			S641.653,105.565,638.881,105.565z M638.881,97.309c-1.78,0-3.228,1.448-3.228,3.228c0,1.78,1.447,3.229,3.228,3.229
			s3.228-1.448,3.228-3.229C642.108,98.757,640.661,97.309,638.881,97.309z"/>
		<path class="st0" d="M664.112,105.565c-2.772,0-5.028-2.256-5.028-5.028s2.256-5.028,5.028-5.028s5.028,2.255,5.028,5.028
			S666.885,105.565,664.112,105.565z M664.112,97.309c-1.78,0-3.228,1.448-3.228,3.228c0,1.78,1.447,3.229,3.228,3.229
			s3.228-1.448,3.228-3.229C667.34,98.757,665.893,97.309,664.112,97.309z"/>
		<path class="st0" d="M677.244,83.713c-2.773,0-5.029-2.255-5.029-5.028s2.256-5.028,5.029-5.028c2.772,0,5.028,2.256,5.028,5.028
			S680.017,83.713,677.244,83.713z M677.244,75.457c-1.78,0-3.229,1.448-3.229,3.229c0,1.78,1.448,3.228,3.229,3.228
			s3.228-1.448,3.228-3.228C680.472,76.905,679.024,75.457,677.244,75.457z"/>
		<path class="st0" d="M625.75,83.713c-2.772,0-5.028-2.255-5.028-5.028s2.256-5.028,5.028-5.028s5.028,2.256,5.028,5.028
			S628.522,83.713,625.75,83.713z M625.75,75.457c-1.78,0-3.228,1.448-3.228,3.229c0,1.78,1.447,3.228,3.228,3.228
			s3.228-1.448,3.228-3.228C628.978,76.905,627.53,75.457,625.75,75.457z"/>
	</g>
	<g>
		<path class="st0" d="M460.043,64.859c-4.171,0-7.564-3.394-7.564-7.565s3.394-7.565,7.564-7.565c4.172,0,7.565,3.394,7.565,7.565
			S464.215,64.859,460.043,64.859z M460.043,51.729c-3.068,0-5.564,2.497-5.564,5.565s2.496,5.565,5.564,5.565
			s5.565-2.497,5.565-5.565S463.111,51.729,460.043,51.729z"/>
		<path class="st0" d="M504.173,64.859c-4.171,0-7.564-3.394-7.564-7.565s3.394-7.565,7.564-7.565c4.172,0,7.565,3.394,7.565,7.565
			S508.345,64.859,504.173,64.859z M504.173,51.729c-3.068,0-5.564,2.497-5.564,5.565s2.496,5.565,5.564,5.565
			s5.565-2.497,5.565-5.565S507.241,51.729,504.173,51.729z"/>
		<g>
			<path class="st0" d="M465.324,108.001h-10.562c-1.103,0-2-0.897-2-2V95.439c0-1.103,0.897-2,2-2h10.562c1.103,0,2,0.897,2,2
				v10.562C467.324,107.104,466.427,108.001,465.324,108.001z M454.762,95.439v10.562h10.563l-0.001-10.562H454.762z"/>
			<path class="st0" d="M509.454,108.001h-10.562c-1.103,0-2-0.897-2-2V95.439c0-1.103,0.897-2,2-2h10.562c1.103,0,2,0.897,2,2
				v10.562C511.454,107.104,510.557,108.001,509.454,108.001z M498.892,95.439v10.562h10.563l-0.001-10.562H498.892z"/>
			<path class="st0" d="M487.39,108.001h-10.562c-1.103,0-2-0.897-2-2V95.439c0-1.103,0.897-2,2-2h10.562c1.103,0,2,0.897,2,2
				v10.562C489.39,107.104,488.492,108.001,487.39,108.001z M476.827,95.439v10.562h10.563l-0.001-10.562H476.827z"/>
		</g>
		<path class="st0" d="M482.108,64.859c-4.172,0-7.565-3.394-7.565-7.565s3.394-7.565,7.565-7.565c4.171,0,7.564,3.394,7.564,7.565
			S486.279,64.859,482.108,64.859z M482.108,51.729c-3.068,0-5.565,2.497-5.565,5.565s2.497,5.565,5.565,5.565
			s5.564-2.497,5.564-5.565S485.177,51.729,482.108,51.729z"/>
		<g>
			<path class="st0" d="M465.81,85.468h-11.533c-0.769,0-1.457-0.397-1.842-1.063c-0.384-0.666-0.384-1.46,0-2.126l5.767-9.988
				c0.385-0.666,1.073-1.063,1.842-1.063s1.457,0.397,1.842,1.063l5.767,9.988c0.384,0.666,0.384,1.461,0,2.126
				C467.267,85.071,466.578,85.468,465.81,85.468z M460.043,73.227c-0.073,0-0.1,0.046-0.109,0.063l0,0l-5.767,9.988
				c-0.01,0.017-0.037,0.063,0,0.126c0.036,0.063,0.09,0.063,0.109,0.063h11.533c0.02,0,0.073,0,0.109-0.063
				c0.037-0.063,0.01-0.109,0-0.126l-5.767-9.988C460.143,73.273,460.116,73.227,460.043,73.227z M459.067,72.79h0.01H459.067z"/>
			<path class="st0" d="M509.939,85.468h-11.533c-0.769,0-1.457-0.397-1.842-1.063c-0.384-0.666-0.384-1.46,0-2.126l5.767-9.988l0,0
				c0.385-0.666,1.073-1.063,1.842-1.063s1.457,0.397,1.842,1.063l5.767,9.988c0.384,0.666,0.384,1.461,0,2.126
				C511.396,85.071,510.708,85.468,509.939,85.468z M504.063,73.29l-5.767,9.988c-0.01,0.017-0.037,0.063,0,0.126
				c0.036,0.063,0.09,0.063,0.109,0.063h11.533c0.02,0,0.073,0,0.109-0.063c0.037-0.063,0.01-0.109,0-0.126l-5.767-9.988
				C504.263,73.256,504.083,73.256,504.063,73.29L504.063,73.29z"/>
			<path class="st0" d="M487.875,85.468h-11.533c-0.769,0-1.457-0.397-1.842-1.063c-0.384-0.666-0.384-1.46,0-2.126l5.767-9.988
				c0.385-0.666,1.073-1.063,1.842-1.063s1.457,0.397,1.842,1.063l5.767,9.988c0.384,0.666,0.384,1.461,0,2.126
				C489.332,85.071,488.644,85.468,487.875,85.468z M482.108,73.227c-0.073,0-0.1,0.046-0.109,0.063l0,0l-5.767,9.988
				c-0.01,0.017-0.037,0.063,0,0.126c0.036,0.063,0.09,0.063,0.109,0.063h11.533c0.02,0,0.073,0,0.109-0.063
				c0.037-0.063,0.01-0.109,0-0.126l-5.767-9.988C482.208,73.273,482.182,73.227,482.108,73.227z"/>
		</g>
		<rect x="466.608" y="55.996" class="st0" width="8.935" height="2"/>
		<rect x="488.39" y="55.996" class="st0" width="8.935" height="2"/>
		<rect x="464.557" y="77.431" class="st0" width="13.094" height="2"/>
		<rect x="485.967" y="77.431" class="st0" width="13.702" height="2"/>
		<rect x="466.608" y="99.72" class="st0" width="8.935" height="2"/>
		<rect x="459.043" y="84.7" class="st0" width="2" height="8.935"/>
		<rect x="503.173" y="63.06" class="st0" width="2" height="8.936"/>
		<rect x="488.39" y="99.72" class="st0" width="8.935" height="2"/>
	</g>
	<g>
		<g>
			<path class="st0" d="M146.792,86.331c1.454,0,2.637,1.183,2.637,2.637c0,1.454-1.183,2.637-2.637,2.637s-2.637-1.183-2.637-2.637
				C144.154,87.514,145.337,86.331,146.792,86.331 M146.792,84.331c-2.561,0-4.637,2.076-4.637,4.637
				c0,2.561,2.076,4.637,4.637,4.637c2.561,0,4.637-2.076,4.637-4.637C151.429,86.407,149.353,84.331,146.792,84.331L146.792,84.331
				z"/>
			<path class="st0" d="M135.661,72.984c1.454,0,2.637,1.183,2.637,2.637c0,1.454-1.183,2.637-2.637,2.637s-2.637-1.183-2.637-2.637
				C133.024,74.167,134.207,72.984,135.661,72.984 M135.661,70.984c-2.561,0-4.637,2.076-4.637,4.637
				c0,2.561,2.076,4.637,4.637,4.637s4.637-2.076,4.637-4.637C140.299,73.06,138.223,70.984,135.661,70.984L135.661,70.984z"/>
			<path class="st0" d="M149.397,63.29c1.454,0,2.637,1.183,2.637,2.637c0,1.454-1.183,2.637-2.637,2.637s-2.637-1.183-2.637-2.637
				C146.76,64.473,147.943,63.29,149.397,63.29 M149.397,61.29c-2.561,0-4.637,2.076-4.637,4.637c0,2.561,2.076,4.637,4.637,4.637
				c2.561,0,4.637-2.076,4.637-4.637C154.035,63.366,151.958,61.29,149.397,61.29L149.397,61.29z"/>
			<g>
				<path class="st0" d="M155.914,76.937h-16.778v-2h16.445l4.946-3.709c0.173-0.13,0.384-0.2,0.6-0.2h17.104v2H161.46l-4.946,3.709
					C156.341,76.866,156.13,76.937,155.914,76.937z"/>
				<rect x="153.959" y="65.163" class="st0" width="23.923" height="2"/>
				<path class="st0" d="M150.55,87.879l-1.001-1.731l14.66-8.47c0.152-0.088,0.325-0.134,0.5-0.134h8.145
					c0.265,0,0.52,0.105,0.707,0.293l5.212,5.212l-1.414,1.414l-4.919-4.919h-7.463L150.55,87.879z"/>
			</g>
		</g>
		<path class="st0" d="M151.086,112.104l-0.018-4.946c0-0.044-0.05-0.095-0.095-0.095h0l-8.514,0.033
			c-0.045,0-0.095,0.051-0.095,0.096l0.017,4.904l-2,0.007l-0.017-4.904c-0.002-0.558,0.214-1.085,0.609-1.483
			c0.395-0.397,0.92-0.618,1.479-0.62l8.514-0.033c0.003,0,0.006,0,0.009,0c1.151,0,2.09,0.935,2.095,2.087l0.018,4.947
			L151.086,112.104z"/>
		<g>
			
				<rect x="144.453" y="101.081" transform="matrix(1 -0.0039 0.0039 1 -0.4039 0.5721)" class="st0" width="4.495" height="5.849"/>
		</g>
		<path class="st0" d="M146.311,53.473c12.923,0,23.477,10.514,23.527,23.438c0.051,12.974-10.464,23.571-23.438,23.621l-0.094,0
			c-12.923,0-23.477-10.514-23.527-23.438c-0.024-6.285,2.4-12.203,6.827-16.665c4.427-4.461,10.326-6.932,16.611-6.956
			L146.311,53.473 M146.299,98.375c6.336,0,12.304-2.78,16.375-7.627c7.579-9.024,6.404-22.532-2.62-30.111
			c-3.844-3.229-8.723-5.007-13.736-5.007c-6.336,0-12.304,2.78-16.375,7.627c-7.579,9.024-6.404,22.532,2.62,30.111
			C136.408,96.597,141.286,98.375,146.299,98.375 M146.311,51.473c-0.034,0-0.067,0-0.102,0c-14.1,0.055-25.485,11.529-25.43,25.629
			c0.055,14.065,11.475,25.43,25.527,25.43c0.034,0,0.067,0,0.102,0c14.1-0.055,25.485-11.529,25.43-25.629
			C171.784,62.838,160.364,51.473,146.311,51.473L146.311,51.473z M146.299,96.375c-4.397,0-8.819-1.489-12.449-4.539
			c-8.193-6.881-9.256-19.101-2.375-27.293c3.832-4.562,9.319-6.913,14.844-6.913c4.397,0,8.819,1.489,12.449,4.539
			c8.193,6.881,9.256,19.101,2.375,27.293C157.312,94.024,151.824,96.375,146.299,96.375L146.299,96.375z"/>
		<path class="st0" d="M151.086,112.104l-0.018-4.946c0-0.044-0.05-0.095-0.095-0.095h0l-8.514,0.033
			c-0.045,0-0.095,0.051-0.095,0.096l0.017,4.904l-2,0.007l-0.017-4.904c-0.002-0.558,0.214-1.085,0.609-1.483
			c0.395-0.397,0.92-0.618,1.479-0.62l8.514-0.033c0.003,0,0.006,0,0.009,0c1.151,0,2.09,0.935,2.095,2.087l0.018,4.947
			L151.086,112.104z"/>
	</g>
	<g>
		<g>
			<path class="st0" d="M293.878,67.233c0.403,0,0.731,0.328,0.731,0.731v9.198c0,0.403-0.328,0.731-0.731,0.731h-9.198
				c-0.403,0-0.731-0.328-0.731-0.731v-9.198c0-0.403,0.328-0.731,0.731-0.731H293.878 M293.878,65.233h-9.198
				c-1.508,0-2.731,1.223-2.731,2.731v9.198c0,1.508,1.223,2.731,2.731,2.731h9.198c1.508,0,2.731-1.223,2.731-2.731v-9.198
				C296.609,66.456,295.386,65.233,293.878,65.233L293.878,65.233z"/>
			<path class="st0" d="M289.279,99.544c-0.552,0-1-0.448-1-1V78.6c0-0.552,0.448-1,1-1s1,0.448,1,1v19.945
				C290.279,99.097,289.832,99.544,289.279,99.544z"/>
			<path class="st0" d="M289.279,66.502c-0.552,0-1-0.448-1-1v-7.103c0-0.552,0.448-1,1-1s1,0.448,1,1v7.103
				C290.279,66.054,289.832,66.502,289.279,66.502z"/>
			<path class="st0" d="M315.4,79.763c0.403,0,0.731,0.328,0.731,0.731v9.198c0,0.403-0.328,0.731-0.731,0.731h-9.198
				c-0.403,0-0.731-0.328-0.731-0.731v-9.198c0-0.403,0.328-0.731,0.731-0.731H315.4 M315.4,77.763h-9.198
				c-1.508,0-2.731,1.223-2.731,2.731v9.198c0,1.508,1.223,2.731,2.731,2.731h9.198c1.508,0,2.731-1.223,2.731-2.731v-9.198
				C318.13,78.985,316.908,77.763,315.4,77.763L315.4,77.763z"/>
			<path class="st0" d="M310.801,99.544c-0.552,0-1-0.448-1-1v-6.858c0-0.552,0.448-1,1-1s1,0.448,1,1v6.858
				C311.801,99.097,311.353,99.544,310.801,99.544z"/>
			<path class="st0" d="M310.801,79.594c-0.552,0-1-0.448-1-1V58.399c0-0.552,0.448-1,1-1s1,0.448,1,1v20.195
				C311.801,79.146,311.353,79.594,310.801,79.594z"/>
			<path class="st0" d="M336.921,66.466c0.403,0,0.731,0.328,0.731,0.731v9.198c0,0.403-0.328,0.731-0.731,0.731h-9.198
				c-0.403,0-0.731-0.328-0.731-0.731v-9.198c0-0.403,0.328-0.731,0.731-0.731H336.921 M336.921,64.466h-9.198
				c-1.508,0-2.731,1.223-2.731,2.731v9.198c0,1.508,1.223,2.731,2.731,2.731h9.198c1.508,0,2.731-1.223,2.731-2.731v-9.198
				C339.652,65.689,338.43,64.466,336.921,64.466L336.921,64.466z"/>
			<path class="st0" d="M332.323,99.544c-0.552,0-1-0.448-1-1V78.386c0-0.552,0.448-1,1-1s1,0.448,1,1v20.158
				C333.323,99.097,332.875,99.544,332.323,99.544z"/>
			<path class="st0" d="M332.323,66.294c-0.552,0-1-0.448-1-1v-6.895c0-0.552,0.448-1,1-1s1,0.448,1,1v6.895
				C333.323,65.846,332.875,66.294,332.323,66.294z"/>
		</g>
	</g>
	<linearGradient id="SVGID_1_" gradientUnits="userSpaceOnUse" x1="211.221" y1="51.7301" x2="85.5534" y2="110.3299">
		<stop  offset="0" style="stop-color:#00B4E5"/>
		<stop  offset="1" style="stop-color:#1CD0BB"/>
	</linearGradient>
	<path class="st1" d="M200.557,133.2H96.218V28.86h104.339V133.2z M103.218,126.2h90.339V35.86h-90.339V126.2z"/>
	
		<linearGradient id="SVGID_00000083065769970121688600000016414081479878752151_" gradientUnits="userSpaceOnUse" x1="373.7689" y1="51.7301" x2="248.1013" y2="110.3299">
		<stop  offset="0" style="stop-color:#00B4E5"/>
		<stop  offset="1" style="stop-color:#1CD0BB"/>
	</linearGradient>
	<path style="fill:url(#SVGID_00000083065769970121688600000016414081479878752151_);" d="M363.104,133.2H258.766V28.86h104.339
		V133.2z M265.766,126.2h90.339V35.86h-90.339V126.2z"/>
	
		<linearGradient id="SVGID_00000009584843848281040620000009342509508754713223_" gradientUnits="userSpaceOnUse" x1="544.3596" y1="51.73" x2="418.6912" y2="110.3301">
		<stop  offset="0" style="stop-color:#00B4E5"/>
		<stop  offset="1" style="stop-color:#1CD0BB"/>
	</linearGradient>
	<path style="fill:url(#SVGID_00000009584843848281040620000009342509508754713223_);" d="M533.695,133.2h-104.34V28.86h104.34
		V133.2z M436.355,126.2h90.34V35.86h-90.34V126.2z"/>
	
		<linearGradient id="SVGID_00000116222294600042531240000007315787097025478580_" gradientUnits="userSpaceOnUse" x1="712.9573" y1="51.7301" x2="587.2897" y2="110.3299">
		<stop  offset="0" style="stop-color:#00B4E5"/>
		<stop  offset="1" style="stop-color:#1CD0BB"/>
	</linearGradient>
	<path style="fill:url(#SVGID_00000116222294600042531240000007315787097025478580_);" d="M702.293,133.2H597.954V28.86h104.339
		V133.2z M604.954,126.2h90.339V35.86h-90.339V126.2z"/>
	
		<linearGradient id="SVGID_00000127748420173217191480000017329574912989834906_" gradientUnits="userSpaceOnUse" x1="608.3067" y1="2149.6162" x2="608.3067" y2="1504.9534" gradientTransform="matrix(0 1 -1 0 2231.2166 -399.6404)">
		<stop  offset="0" style="stop-color:#00B4E5"/>
		<stop  offset="1" style="stop-color:#1CD0BB"/>
	</linearGradient>
	<polygon style="opacity:0.3;fill:url(#SVGID_00000127748420173217191480000017329574912989834906_);" points="690.673,244.251 
		690.673,228.421 81.6,228.421 81.6,188.911 690.673,188.911 690.673,173.081 726.263,208.671 	"/>
	<g>
		<path class="st0" d="M105.558,202.958h4.437c3.74,0,6.323,2.567,6.323,5.916v0.034c0,3.349-2.583,5.949-6.323,5.949h-4.437
			V202.958z M107.649,204.862v8.091h2.346c2.499,0,4.131-1.683,4.131-4.012v-0.034c0-2.329-1.632-4.046-4.131-4.046H107.649z"/>
		<path class="st0" d="M118.971,202.958h2.091v11.899h-2.091V202.958z"/>
		<path class="st0" d="M123.442,213.123l1.258-1.496c1.139,0.986,2.295,1.547,3.757,1.547c1.292,0,2.107-0.612,2.107-1.496v-0.034
			c0-0.85-0.476-1.309-2.686-1.819c-2.533-0.612-3.96-1.359-3.96-3.552v-0.034c0-2.04,1.7-3.451,4.062-3.451
			c1.734,0,3.111,0.527,4.317,1.496l-1.122,1.581c-1.071-0.799-2.142-1.224-3.23-1.224c-1.224,0-1.938,0.629-1.938,1.411v0.034
			c0,0.918,0.544,1.326,2.838,1.87c2.516,0.612,3.808,1.513,3.808,3.485v0.034c0,2.227-1.75,3.553-4.25,3.553
			C126.586,215.027,124.87,214.398,123.442,213.123z"/>
		<path class="st0" d="M134.594,208.941v-0.034c0-3.383,2.533-6.154,6.136-6.154c2.193,0,3.519,0.765,4.658,1.853l-1.343,1.547
			c-0.952-0.884-1.972-1.479-3.332-1.479c-2.261,0-3.926,1.87-3.926,4.199v0.034c0,2.329,1.649,4.215,3.926,4.215
			c1.462,0,2.397-0.578,3.417-1.53l1.343,1.36c-1.241,1.292-2.601,2.108-4.828,2.108
			C137.177,215.061,134.594,212.358,134.594,208.941z"/>
		<path class="st0" d="M146.8,208.941v-0.034c0-3.349,2.583-6.154,6.238-6.154s6.205,2.771,6.205,6.12v0.034
			c0,3.349-2.584,6.153-6.239,6.153C149.35,215.061,146.8,212.29,146.8,208.941z M157.05,208.941v-0.034
			c0-2.312-1.683-4.233-4.046-4.233c-2.362,0-4.011,1.887-4.011,4.199v0.034c0,2.312,1.683,4.215,4.045,4.215
			S157.05,211.253,157.05,208.941z"/>
		<path class="st0" d="M160.009,202.958h2.312l3.586,9.145l3.57-9.145h2.261l-4.93,11.984h-1.853L160.009,202.958z"/>
		<path class="st0" d="M173.779,202.958h8.822v1.87h-6.731v3.094h5.966v1.87h-5.966v3.196h6.816v1.87h-8.907V202.958z"/>
		<path class="st0" d="M185.169,202.958h5.304c1.496,0,2.668,0.442,3.434,1.19c0.629,0.646,0.986,1.53,0.986,2.567v0.034
			c0,1.955-1.173,3.128-2.822,3.604l3.213,4.504h-2.482l-2.924-4.147h-2.618v4.147h-2.091V202.958z M190.319,208.856
			c1.496,0,2.448-0.782,2.448-1.989v-0.034c0-1.275-0.918-1.972-2.464-1.972h-3.043v3.995H190.319z"/>
		<path class="st0" d="M268.33,208.941v-0.034c0-3.383,2.533-6.154,6.136-6.154c2.193,0,3.519,0.765,4.658,1.853l-1.343,1.547
			c-0.952-0.884-1.972-1.479-3.332-1.479c-2.261,0-3.926,1.87-3.926,4.199v0.034c0,2.329,1.649,4.215,3.926,4.215
			c1.462,0,2.397-0.578,3.417-1.53l1.343,1.36c-1.241,1.292-2.601,2.108-4.828,2.108C270.914,215.061,268.33,212.358,268.33,208.941
			z"/>
		<path class="st0" d="M281.403,202.958h2.091v9.995h6.255v1.904h-8.346V202.958z"/>
		<path class="st0" d="M291.925,202.958h8.822v1.87h-6.731v3.094h5.966v1.87h-5.966v3.196h6.816v1.87h-8.907V202.958z"/>
		<path class="st0" d="M307.531,202.873h1.938l5.235,11.984h-2.209l-1.207-2.873h-5.626l-1.224,2.873h-2.142L307.531,202.873z
			 M310.523,210.131l-2.057-4.759l-2.04,4.759H310.523z"/>
		<path class="st0" d="M316.745,202.958h1.938l6.374,8.228v-8.228h2.057v11.899h-1.751l-6.562-8.465v8.465h-2.057V202.958z"/>
		<path class="st0" d="M329.376,213.123l1.258-1.496c1.139,0.986,2.295,1.547,3.757,1.547c1.292,0,2.107-0.612,2.107-1.496v-0.034
			c0-0.85-0.476-1.309-2.686-1.819c-2.533-0.612-3.96-1.359-3.96-3.552v-0.034c0-2.04,1.7-3.451,4.062-3.451
			c1.734,0,3.111,0.527,4.317,1.496l-1.122,1.581c-1.071-0.799-2.142-1.224-3.23-1.224c-1.224,0-1.938,0.629-1.938,1.411v0.034
			c0,0.918,0.544,1.326,2.838,1.87c2.516,0.612,3.808,1.513,3.808,3.485v0.034c0,2.227-1.75,3.553-4.25,3.553
			C332.521,215.027,330.804,214.398,329.376,213.123z"/>
		<path class="st0" d="M341.055,202.958h8.822v1.87h-6.731v3.094h5.966v1.87h-5.966v3.196h6.816v1.87h-8.907V202.958z"/>
		<path class="st0" d="M426.767,204.896h-3.774v-1.938h9.655v1.938h-3.773v9.961h-2.107V204.896z"/>
		<path class="st0" d="M434.858,202.958h5.304c1.495,0,2.668,0.442,3.434,1.19c0.629,0.646,0.985,1.53,0.985,2.567v0.034
			c0,1.955-1.173,3.128-2.821,3.604l3.213,4.504h-2.482l-2.924-4.147h-2.617v4.147h-2.091V202.958z M440.009,208.856
			c1.496,0,2.447-0.782,2.447-1.989v-0.034c0-1.275-0.918-1.972-2.465-1.972h-3.042v3.995H440.009z"/>
		<path class="st0" d="M451.365,202.873h1.938l5.235,11.984h-2.21l-1.207-2.873h-5.626l-1.224,2.873h-2.143L451.365,202.873z
			 M454.356,210.131l-2.057-4.759l-2.04,4.759H454.356z"/>
		<path class="st0" d="M460.579,202.958h1.938l6.374,8.228v-8.228h2.057v11.899h-1.751l-6.562-8.465v8.465h-2.057V202.958z"/>
		<path class="st0" d="M473.21,213.123l1.258-1.496c1.139,0.986,2.295,1.547,3.757,1.547c1.292,0,2.107-0.612,2.107-1.496v-0.034
			c0-0.85-0.476-1.309-2.686-1.819c-2.532-0.612-3.96-1.359-3.96-3.552v-0.034c0-2.04,1.699-3.451,4.062-3.451
			c1.733,0,3.11,0.527,4.317,1.496l-1.122,1.581c-1.071-0.799-2.142-1.224-3.229-1.224c-1.224,0-1.938,0.629-1.938,1.411v0.034
			c0,0.918,0.544,1.326,2.838,1.87c2.517,0.612,3.808,1.513,3.808,3.485v0.034c0,2.227-1.75,3.553-4.249,3.553
			C476.354,215.027,474.638,214.398,473.21,213.123z"/>
		<path class="st0" d="M484.889,202.958h8.856v1.904h-6.766v3.247h6.001v1.904h-6.001v4.845h-2.091V202.958z"/>
		<path class="st0" d="M495.412,208.941v-0.034c0-3.349,2.583-6.154,6.238-6.154c3.654,0,6.204,2.771,6.204,6.12v0.034
			c0,3.349-2.584,6.153-6.238,6.153S495.412,212.29,495.412,208.941z M505.662,208.941v-0.034c0-2.312-1.684-4.233-4.046-4.233
			s-4.012,1.887-4.012,4.199v0.034c0,2.312,1.683,4.215,4.046,4.215C504.013,213.123,505.662,211.253,505.662,208.941z"/>
		<path class="st0" d="M510.389,202.958h5.304c1.496,0,2.669,0.442,3.434,1.19c0.629,0.646,0.986,1.53,0.986,2.567v0.034
			c0,1.955-1.173,3.128-2.822,3.604l3.213,4.504h-2.481l-2.924-4.147h-2.618v4.147h-2.091V202.958z M515.539,208.856
			c1.496,0,2.448-0.782,2.448-1.989v-0.034c0-1.275-0.918-1.972-2.465-1.972h-3.043v3.995H515.539z"/>
		<path class="st0" d="M522.68,202.958h2.227l3.621,5.626l3.62-5.626h2.227v11.899h-2.091v-8.533l-3.756,5.609h-0.068l-3.723-5.575
			v8.499h-2.057V202.958z"/>
		<path class="st0" d="M613.933,202.958h8.822v1.87h-6.731v3.094h5.966v1.87h-5.966v3.196h6.816v1.87h-8.907V202.958z"/>
		<path class="st0" d="M625.322,202.958h1.938l6.374,8.228v-8.228h2.057v11.899h-1.751l-6.562-8.465v8.465h-2.057V202.958z"/>
		<path class="st0" d="M638.752,202.958h5.304c1.496,0,2.669,0.442,3.434,1.19c0.629,0.646,0.986,1.53,0.986,2.567v0.034
			c0,1.955-1.173,3.128-2.822,3.604l3.213,4.504h-2.481l-2.924-4.147h-2.618v4.147h-2.091V202.958z M643.902,208.856
			c1.496,0,2.448-0.782,2.448-1.989v-0.034c0-1.275-0.918-1.972-2.465-1.972h-3.043v3.995H643.902z"/>
		<path class="st0" d="M651.162,202.958h2.091v11.899h-2.091V202.958z"/>
		<path class="st0" d="M655.905,208.941v-0.034c0-3.383,2.532-6.154,6.136-6.154c2.193,0,3.519,0.765,4.658,1.853l-1.343,1.547
			c-0.952-0.884-1.973-1.479-3.332-1.479c-2.261,0-3.927,1.87-3.927,4.199v0.034c0,2.329,1.649,4.215,3.927,4.215
			c1.462,0,2.396-0.578,3.417-1.53l1.343,1.36c-1.241,1.292-2.601,2.108-4.828,2.108
			C658.488,215.061,655.905,212.358,655.905,208.941z"/>
		<path class="st0" d="M668.978,202.958h2.091v4.947h5.678v-4.947h2.091v11.899h-2.091v-5.015h-5.678v5.015h-2.091V202.958z"/>
	</g>
</g>
</svg>
