<?xml version="1.0" encoding="UTF-8"?><svg id="_レイヤー_2" xmlns="http://www.w3.org/2000/svg" width="900" height="675" viewBox="0 0 900 675"><defs><style>.cls-1{fill:#fff;}.cls-2{stroke-width:4.95px;}.cls-2,.cls-3{fill:none;stroke:#fff;stroke-miterlimit:10;}.cls-4{fill:#ececed;}.cls-3{stroke-width:2.5px;}.cls-5{fill:#0064d2;}.cls-6{fill:#e7e7e9;}</style></defs><g id="_レイヤー_2-2"><g><rect class="cls-1" width="900" height="675"/><path class="cls-4" d="M452.41,41.9c-164.77,0-298.34,133.57-298.34,298.34s133.57,298.34,298.34,298.34,298.34-133.57,298.34-298.34S617.18,41.9,452.41,41.9m0,466.19c-92.7,0-167.85-75.15-167.85-167.85s75.15-167.86,167.85-167.86,167.85,75.15,167.85,167.86-75.15,167.85-167.85,167.85"/><path class="cls-3" d="M452.41,41.9c-164.77,0-298.34,133.57-298.34,298.34s133.57,298.34,298.34,298.34,298.34-133.57,298.34-298.34S617.18,41.9,452.41,41.9Zm0,466.19c-92.7,0-167.85-75.15-167.85-167.85s75.15-167.86,167.85-167.86,167.85,75.15,167.85,167.86-75.15,167.85-167.85,167.85Z"/><line class="cls-6" x1="160.56" y1="219.36" x2="744.25" y2="461.13"/><line class="cls-2" x1="160.56" y1="219.36" x2="744.25" y2="461.13"/><line class="cls-6" x1="160.56" y1="461.13" x2="744.25" y2="219.36"/><line class="cls-2" x1="160.56" y1="461.13" x2="744.25" y2="219.36"/><line class="cls-6" x1="331.52" y1="632.08" x2="573.29" y2="48.4"/><line class="cls-2" x1="331.52" y1="632.08" x2="573.29" y2="48.4"/><line class="cls-6" x1="573.29" y1="632.08" x2="331.52" y2="48.4"/><line class="cls-2" x1="573.29" y1="632.08" x2="331.52" y2="48.4"/><g><path class="cls-5" d="M419.38,90.52c0-2.02,1.65-3.67,3.67-3.67h11.01l3.67-3.67v-7.34c0-4.05-3.29-7.34-7.34-7.34s-7.34,3.29-7.34,7.34h-3.67v3.67h3.67l3.67,3.67v-3.67h7.34v3.67h-11.01c-4.05,0-7.34,3.29-7.34,7.34v25.68l3.67,3.67v-29.35Zm7.34-14.68c0-2.02,1.65-3.67,3.67-3.67s3.67,1.65,3.67,3.67h-7.34Z"/><polygon class="cls-5" points="441.4 145.56 437.73 149.23 445.07 149.23 445.07 97.86 441.4 101.53 441.4 145.56"/><polygon class="cls-5" points="459.74 149.23 463.41 149.23 463.41 97.86 459.74 101.53 459.74 149.23"/><polygon class="cls-5" points="423.05 141.89 419.38 145.56 426.72 145.56 426.72 94.19 423.05 97.86 423.05 141.89"/><path class="cls-5" d="M481.76,83.18h-11.01v-7.34c0-2.02,1.65-3.67,3.67-3.67s3.67,1.65,3.67,3.67v7.34l3.67-3.67v-3.67c0-4.05-3.29-7.34-7.34-7.34s-7.34,3.29-7.34,7.34v7.34l3.67,3.67h11.01c2.02,0,3.67,1.65,3.67,3.67v29.35l3.67-3.67v-25.68c0-4.05-3.29-7.34-7.34-7.34"/><path class="cls-5" d="M463.41,86.85h-14.68v-7.34c0-2.02,1.65-3.67,3.67-3.67s3.67,1.65,3.67,3.67v7.34l3.67-3.67v-3.67c0-4.05-3.29-7.34-7.34-7.34s-7.34,3.29-7.34,7.34v7.34h-3.67c-4.05,0-7.34,3.29-7.34,7.34v25.68l3.67,3.67v-29.35c0-2.02,1.65-3.67,3.67-3.67h9.17v3.67h3.67v-3.67h9.17c2.02,0,3.67,1.65,3.67,3.67v29.35l3.67-3.67v-25.68c0-4.05-3.29-7.34-7.34-7.34"/><polygon class="cls-5" points="481.76 94.19 474.42 101.53 478.09 101.53 478.09 145.56 485.43 145.56 481.76 141.89 481.76 94.19"/><rect class="cls-5" x="450.57" y="97.86" width="3.67" height="14.68"/></g><path class="cls-5" d="M257.69,350.14v-22.02c0-4.05-3.29-7.34-7.34-7.34h-14.68v-7.34c0-2.02,1.65-3.67,3.67-3.67s3.67,1.65,3.67,3.67v4.89l3.67-3.67v-1.22c0-4.05-3.28-7.34-7.34-7.34s-7.34,3.29-7.34,7.34v11.01h18.35c2.02,0,3.67,1.65,3.67,3.67v11.01h-3.67v-7.34l-3.67,3.67v33.02h-14.68v-14.68h3.67v14.68l3.67-3.67v-25.68c0-4.05-3.29-7.34-7.34-7.34h-14.68v-7.34c0-2.02,1.65-3.67,3.67-3.67s3.67,1.65,3.67,3.67v7.34l3.67-3.67v-3.67c0-4.05-3.29-7.34-7.34-7.34s-7.34,3.29-7.34,7.34v7.34h-3.67c-4.05,0-7.34,3.29-7.34,7.34v25.68l3.67,3.67v-14.68h3.67v14.68h-14.68v-33.02l-3.67-3.67v7.34h-3.67v-11.01c0-2.02,1.65-3.67,3.67-3.67h18.35v-3.67h-11.01v-7.34c0-2.02,1.65-3.67,3.67-3.67s3.67,1.65,3.67,3.67v4.89l3.67-3.67v-1.22c0-4.05-3.28-7.34-7.34-7.34s-7.34,3.29-7.34,7.34v7.34h-3.67c-4.05,0-7.34,3.29-7.34,7.34v22.02l3.67,3.67v-11.01h3.67v25.68h-3.67l-3.67,3.67h73.39l-3.67-3.67h-3.67v-25.68h3.67v11.01l3.67-3.67Zm-44.03,18.35v-22.02l-3.67-3.67v7.34h-3.67v-11.01c0-2.02,1.65-3.67,3.67-3.67h22.02c2.02,0,3.67,1.65,3.67,3.67v11.01h-3.67v-7.34l-3.67,3.67v14.68l-7.34,7.34h-7.34Z"/><g><rect class="cls-5" x="614.96" y="512.13" width="3.67" height="33.02"/><path class="cls-5" d="M627.81,479.11h-3.67v-7.34c0-4.05-3.29-7.34-7.34-7.34s-7.34,3.29-7.34,7.34v3.67l3.67,3.67h-7.34c-2.03,0-3.86,.82-5.19,2.15h0s-10.69,10.69-10.69,10.69l10.25,10.25h5.19l-10.25-10.25,8.1-8.1c.66-.66,1.58-1.08,2.59-1.08h22.02c2.02,0,3.67,1.65,3.67,3.67v29.35l3.67-3.67v-25.68c0-4.05-3.29-7.34-7.34-7.34m-7.34,0h-7.34v-7.34c0-2.02,1.65-3.67,3.67-3.67s3.67,1.65,3.67,3.67v7.34Z"/><rect class="cls-5" x="604.81" y="488.37" width="7.78" height="12.97" transform="translate(-171.6 575.67) rotate(-45.02)"/><polygon class="cls-5" points="605.79 545.16 609.46 545.16 609.46 508.48 605.79 512.15 605.79 545.16"/><polygon class="cls-5" points="598.64 505.87 593.58 500.81 590.35 504.04 599.53 513.21 606.86 505.87 598.64 505.87"/><polygon class="cls-5" points="620.47 497.45 624.14 497.45 624.14 545.16 627.81 545.16 627.81 490.12 620.47 497.45"/></g><g><rect class="cls-5" x="583.77" y="191.83" width="7.34" height="14.68"/><rect class="cls-5" x="598.45" y="177.15" width="7.34" height="29.35"/><rect class="cls-5" x="613.12" y="162.47" width="7.34" height="44.03"/><rect class="cls-5" x="627.8" y="169.81" width="7.34" height="36.69"/><rect class="cls-5" x="642.48" y="162.47" width="7.34" height="44.03"/><polygon class="cls-5" points="649.82 140.46 635.14 140.46 641.18 146.5 631.47 156.21 616.79 141.53 583.77 174.56 583.77 179.75 616.79 146.72 631.47 161.4 643.78 149.09 649.82 155.13 649.82 140.46"/></g><g><polygon class="cls-5" points="302.69 199.17 302.69 188.16 291.68 199.17 302.69 199.17"/><path class="cls-5" d="M284.34,166.14h-1.83c-9.12,0-16.51,7.39-16.51,16.51v1.83h14.68v14.68h3.67l16.51-16.51-16.51-16.51Zm0,18.35l-3.67-3.67h-10.88c.89-6.22,6.25-11.01,12.71-11.01h.32l12.84,12.84-11.32,11.32v-9.49Z"/><path class="cls-5" d="M288.01,136.79c-20.27,0-36.69,16.43-36.69,36.7s16.43,36.69,36.69,36.69,36.69-16.43,36.69-36.69-16.43-36.7-36.69-36.7m24.59,14.68c4.47,4.99,7.45,11.34,8.23,18.35h-1.31l-9.49,9.49-20.5-20.5h-14.68l7.34-7.34h30.41Zm-24.59,55.04c-18.21,0-33.02-14.82-33.02-33.02,0-9.11,3.7-17.36,9.68-23.34l3.16,3.16,5.5-5.5h-6.05c5.67-4.58,12.88-7.34,20.73-7.34s15.05,2.76,20.73,7.34h-28.06l-11.01,11.01,3.67,3.67h14.68l22.02,22.02,11.01-11.01c0,18.21-14.81,33.02-33.02,33.02"/></g><path class="cls-5" d="M724.18,337.67v-29.36h-29.35l6.01,6.01-2.63,2.63c-4.35-2.55-9.29-3.9-14.38-3.9s-10.05,1.35-14.41,3.91l-2.63-2.62,6.03-6.03h-29.35v29.36l5.5-5.5,9.15,9.15-.77,.77c-1.13,1.13-1.74,2.63-1.74,4.22s.62,3.09,1.74,4.22,2.55,1.71,4.1,1.74c.03,1.55,.64,3,1.74,4.1,1.13,1.13,2.61,1.71,4.1,1.74,.03,1.55,.64,3,1.74,4.1s2.61,1.71,4.1,1.74c.03,1.55,.64,3,1.74,4.1,1.16,1.16,2.69,1.74,4.22,1.74s3.05-.58,4.21-1.74l.51-.51,.51,.51c1.13,1.13,2.63,1.75,4.22,1.75s3.09-.62,4.22-1.75c1.1-1.1,1.71-2.55,1.74-4.1,1.49-.03,2.96-.61,4.1-1.74,1.13-1.13,1.71-2.61,1.74-4.1,1.49-.03,2.97-.61,4.1-1.74,1.1-1.1,1.71-2.55,1.74-4.1,1.95-.04,3.76-1.01,4.89-2.71,1.58-2.38,1.09-5.59-.93-7.6l-.61-.61,9.17-9.17,5.5,5.5Zm-61.01,10.35c-.86,.87-2.38,.87-3.24,0-.43-.43-.67-1.01-.67-1.62s.24-1.19,.67-1.62l2.47-2.47c.89-.89,2.35-.89,3.24,0,.43,.43,.67,1.01,.67,1.62s-.24,1.19-.67,1.62l-2.47,2.47Zm2.6,5.84c-.43-.43-.67-1.01-.67-1.62s.24-1.19,.67-1.62l2.47-2.46c.89-.89,2.35-.9,3.24,0,.43,.43,.67,1.01,.67,1.62s-.24,1.19-.67,1.62l-2.47,2.47c-.89,.89-2.35,.89-3.24,0m5.84,5.84c-.43-.43-.67-1.01-.67-1.62s.24-1.19,.67-1.62l2.47-2.47c.45-.45,1.04-.67,1.62-.67s1.18,.23,1.62,.67c.43,.43,.67,1.01,.67,1.62s-.24,1.19-.67,1.62l-2.47,2.46c-.89,.89-2.35,.9-3.24,0m5.84,5.84c-.43-.43-.67-1.01-.67-1.62s.24-1.19,.67-1.62l2.47-2.47c.43-.43,1.01-.67,1.62-.67s1.19,.24,1.62,.67c.43,.43,.67,1.01,.67,1.62s-.24,1.19-.67,1.62l-2.47,2.47c-.89,.89-2.35,.89-3.24,0m30.21-17.52c-.87,.87-2.38,.87-3.24,0h0s0,0,0,0l-.75-.75-2.6,2.6,.75,.75c.43,.43,.67,1.01,.67,1.62s-.24,1.19-.67,1.62c-.89,.89-2.35,.89-3.24,0h0l-.75-.75-2.6,2.6,.75,.75h0c.89,.9,.89,2.35,0,3.24-.89,.89-2.35,.89-3.24,0l-.75-.75-2.6,2.6,.75,.75c.43,.43,.67,1.01,.67,1.62s-.24,1.19-.67,1.62c-.86,.87-2.38,.87-3.24,0l-.56-.56c.75-1.02,1.16-2.24,1.16-3.52,0-1.59-.62-3.09-1.75-4.22-1.1-1.1-2.55-1.71-4.1-1.74-.03-1.55-.64-3-1.74-4.1-1.13-1.13-2.61-1.71-4.1-1.74-.03-1.55-.64-3-1.74-4.1-1.13-1.13-2.61-1.71-4.1-1.74-.03-1.55-.64-3-1.74-4.1-2.01-2.01-5.12-2.28-7.43-.8l-9.25-9.25,12.6-12.6,4.75,4.75,1.27-.84c3.72-2.47,8.01-3.85,12.47-4.06l-14.38,14.38,3.45,3.45c1.99,1.99,5.07,2.4,7.51,1l10.88-6.24c.86-.5,1.95-.35,2.65,.36l14.91,14.92c.89,.89,.89,2.35,0,3.24m-.75-9.18l-11.36-11.38c-1.99-2-5.07-2.41-7.52-1l-10.88,6.24c-.86,.5-1.95,.35-2.65-.35l-1.05-1.05,14.13-14.13c3.52,.54,6.88,1.82,9.87,3.8l1.27,.84,4.75-4.75,12.61,12.61-9.18,9.18Z"/><g><path class="cls-5" d="M485.43,602.43v-13.6l-11.01-11.01-10.25,10.25,2.6,2.6,7.65-7.65,7.34,7.34v12.08h-18.35v-9.93l-11.01-11.01-11.01,11.01v9.93h-7.34v-3.67h1.83c.63,0,1.24-.06,1.83-.18v-3.8c-.57,.2-1.19,.32-1.83,.32h-7.34c-3.03,0-5.5-2.47-5.5-5.5,0-1.77,.83-3.39,2.27-4.44l1.25-.91,.22-1.54c.38-2.7,2.72-4.73,5.44-4.73s5.06,2.03,5.44,4.73l.22,1.54,1.25,.91c.89,.65,1.55,1.52,1.92,2.51l2.74-2.74c-.64-1.07-1.49-2-2.49-2.73-.63-4.46-4.44-7.89-9.07-7.89s-8.45,3.43-9.07,7.89c-2.28,1.67-3.77,4.36-3.77,7.4,0,5.07,4.11,9.17,9.17,9.17h1.83v3.67h-11.01l-3.67,3.67h73.39l-3.67-3.67Zm-40.36,0v-8.41l7.34-7.34,7.34,7.34v8.41h-14.68Z"/><rect class="cls-5" x="437.73" y="551.06" width="3.67" height="7.34"/><rect class="cls-5" x="430.39" y="551.06" width="3.67" height="7.34"/><rect class="cls-5" x="430.39" y="562.07" width="3.67" height="7.34"/><rect class="cls-5" x="459.74" y="562.07" width="3.67" height="7.34"/><rect class="cls-5" x="452.41" y="562.07" width="3.67" height="7.34"/><rect class="cls-5" x="459.74" y="573.08" width="3.67" height="7.34"/><rect class="cls-5" x="452.41" y="573.08" width="3.67" height="7.34"/><rect class="cls-5" x="437.73" y="562.07" width="3.67" height="7.34"/><polygon class="cls-5" points="426.72 547.39 445.07 547.39 445.07 554.73 445.07 558.4 445.07 576.75 448.74 580.42 448.74 558.4 467.08 558.4 467.08 580.42 470.75 576.75 470.75 554.73 448.74 554.73 448.74 543.72 423.05 543.72 423.05 573.24 426.72 569.58 426.72 547.39"/><polygon class="cls-5" points="459.74 543.72 467.08 543.72 478.09 554.73 478.09 576.91 481.76 580.58 481.76 540.05 456.07 540.05 456.07 551.06 459.74 551.06 459.74 543.72"/><polygon class="cls-5" points="452.41 591.59 448.9 595.1 455.91 595.1 452.41 591.59"/><polygon class="cls-5" points="470.92 591.43 477.92 591.43 474.42 587.92 470.92 591.43"/></g><path class="cls-5" d="M317.37,493.79v-7.34h7.34v-3.67l-36.69-18.35-36.69,18.35v3.67h7.34v7.34h3.67v29.35h-3.67v11.01h-3.67l-3.67,3.67h73.39l-3.67-3.67h-3.67v-11.01h-3.67v-29.35h3.67Zm-29.35-25.25l28.49,14.24h-56.98l28.49-14.24Zm-25.69,17.91h51.37v3.67h-51.37v-3.67Zm29.36,36.69h-7.34v-29.35h7.34v29.35Zm-22.02-29.35h7.34v29.35h-7.34v-29.35Zm36.69,40.36h-44.03v-7.34h51.37l-7.34,7.34Zm0-11.01h-7.34v-29.35h7.34v29.35Z"/><g id="en"><g><path d="M360.26,341.1l2.06-2.42c1.6,1.6,3.78,2.63,5.93,2.63,2.69,0,4.2-1.27,4.2-3.14,0-2.03-1.51-2.66-3.57-3.57l-3.08-1.33c-2.15-.91-4.54-2.6-4.54-5.84,0-3.51,3.08-6.14,7.32-6.14,2.6,0,5.05,1.09,6.74,2.81l-1.84,2.24c-1.39-1.24-2.93-2-4.9-2-2.27,0-3.75,1.09-3.75,2.87,0,1.9,1.78,2.63,3.6,3.36l3.05,1.3c2.63,1.12,4.54,2.75,4.54,6.02,0,3.57-2.96,6.47-7.83,6.47-3.05,0-5.9-1.21-7.92-3.27Z"/><path d="M380.45,338.53v-8.41h-2.42v-2.6l2.57-.18,.39-4.6h2.93v4.6h4.32v2.78h-4.32v8.44c0,2,.7,3.02,2.42,3.02,.57,0,1.3-.18,1.78-.39l.63,2.57c-.94,.3-2.06,.6-3.27,.6-3.75,0-5.05-2.33-5.05-5.84Z"/><path d="M390.91,339.56c0-3.57,3.02-5.41,9.95-6.17-.03-1.94-.73-3.63-3.17-3.63-1.75,0-3.39,.79-4.81,1.69l-1.3-2.36c1.72-1.09,4.05-2.18,6.71-2.18,4.14,0,6.05,2.63,6.05,7.05v10.01h-2.84l-.3-1.9h-.09c-1.51,1.3-3.3,2.3-5.29,2.3-2.87,0-4.9-1.87-4.9-4.81Zm9.95,.12v-4.08c-4.93,.6-6.59,1.84-6.59,3.72,0,1.63,1.12,2.3,2.6,2.3s2.63-.7,3.99-1.94Z"/><path d="M409.26,319.88h3.39v15.54h.09l6.53-8.07h3.84l-5.65,6.74,6.29,9.89h-3.78l-4.51-7.53-2.81,3.24v4.29h-3.39v-24.1Z"/><path d="M425.46,335.69c0-5.41,3.69-8.77,7.59-8.77,4.41,0,6.77,3.17,6.77,7.89,0,.67-.06,1.36-.15,1.75h-10.79c.27,3.17,2.27,5.08,5.14,5.08,1.48,0,2.75-.45,3.96-1.24l1.21,2.21c-1.54,1.03-3.45,1.75-5.62,1.75-4.51,0-8.1-3.2-8.1-8.68Zm11.37-1.51c0-2.87-1.3-4.54-3.72-4.54-2.09,0-3.93,1.6-4.26,4.54h7.98Z"/><path d="M443.72,319.88h3.45v6.38l-.12,3.3c1.45-1.39,3.11-2.63,5.38-2.63,3.54,0,5.11,2.36,5.11,6.59v10.46h-3.48v-10.04c0-2.87-.85-4.02-2.81-4.02-1.54,0-2.6,.79-4.08,2.27v11.79h-3.45v-24.1Z"/><path d="M461.31,335.69c0-5.56,3.72-8.77,7.83-8.77s7.83,3.21,7.83,8.77-3.72,8.68-7.83,8.68-7.83-3.17-7.83-8.68Zm12.09,0c0-3.54-1.63-5.9-4.26-5.9s-4.23,2.36-4.23,5.9,1.63,5.84,4.23,5.84,4.26-2.33,4.26-5.84Z"/><path d="M481.05,340.07v-20.2h3.45v20.38c0,.94,.42,1.27,.85,1.27,.15,0,.27,0,.57-.06l.45,2.63c-.42,.15-1.03,.27-1.87,.27-2.51,0-3.45-1.6-3.45-4.29Z"/><path d="M488.94,335.69c0-5.41,3.42-8.77,7.14-8.77,1.9,0,3.11,.73,4.47,1.87l-.15-2.75v-6.17h3.48v24.1h-2.84l-.3-1.87h-.09c-1.24,1.27-2.96,2.27-4.84,2.27-4.17,0-6.86-3.17-6.86-8.68Zm11.46,3.78v-8.13c-1.24-1.12-2.42-1.51-3.66-1.51-2.33,0-4.2,2.21-4.2,5.81,0,3.78,1.48,5.87,4.08,5.87,1.39,0,2.57-.63,3.78-2.03Z"/><path d="M507.93,335.69c0-5.41,3.69-8.77,7.59-8.77,4.41,0,6.77,3.17,6.77,7.89,0,.67-.06,1.36-.15,1.75h-10.79c.27,3.17,2.27,5.08,5.14,5.08,1.48,0,2.75-.45,3.96-1.24l1.21,2.21c-1.54,1.03-3.45,1.75-5.62,1.75-4.51,0-8.1-3.2-8.1-8.68Zm11.37-1.51c0-2.87-1.3-4.54-3.72-4.54-2.09,0-3.93,1.6-4.26,4.54h7.98Z"/><path d="M526.19,327.34h2.84l.27,2.99h.09c1.18-2.15,2.93-3.42,4.72-3.42,.82,0,1.36,.12,1.87,.36l-.63,3.02c-.57-.18-1-.27-1.66-.27-1.36,0-2.99,.94-4.05,3.57v10.37h-3.45v-16.63Z"/><path d="M536.8,342.07l1.63-2.24c1.48,1.18,2.93,1.9,4.72,1.9,2,0,2.93-.97,2.93-2.24,0-1.51-1.87-2.18-3.69-2.87-2.21-.85-4.75-2.03-4.75-4.84s2.24-4.87,5.9-4.87c2.24,0,4.05,.91,5.41,1.97l-1.63,2.15c-1.15-.85-2.33-1.45-3.72-1.45-1.81,0-2.66,.91-2.66,2.06,0,1.42,1.72,1.97,3.54,2.63,2.33,.88,4.9,1.9,4.9,5.05,0,2.78-2.21,5.05-6.32,5.05-2.3,0-4.66-.97-6.26-2.3Z"/></g><g><path d="M412.24,23.51c0-4.1,2.41-6.61,5.65-6.61,1.55,0,2.76,.74,3.5,1.57l-.87,1.05c-.68-.72-1.52-1.2-2.6-1.2-2.41,0-4,1.98-4,5.15s1.54,5.23,3.94,5.23c1.22,0,2.14-.54,2.95-1.44l.89,1.01c-1.01,1.17-2.25,1.85-3.91,1.85-3.19,0-5.56-2.45-5.56-6.61Z"/><path d="M423.4,26.42v-5.98h1.61v5.77c0,1.77,.52,2.53,1.77,2.53,.97,0,1.65-.49,2.55-1.59v-6.7h1.59v9.44h-1.32l-.14-1.48h-.06c-.87,1.03-1.81,1.71-3.11,1.71-2,0-2.89-1.28-2.89-3.69Z"/><path d="M432.67,28.81l.8-1.07c.82,.66,1.65,1.13,2.78,1.13,1.24,0,1.87-.66,1.87-1.48,0-.97-1.13-1.4-2.16-1.79-1.34-.49-2.82-1.13-2.82-2.72s1.2-2.68,3.24-2.68c1.19,0,2.21,.49,2.93,1.07l-.76,1.01c-.64-.49-1.32-.84-2.16-.84-1.19,0-1.73,.64-1.73,1.36,0,.89,1.03,1.22,2.1,1.63,1.36,.51,2.88,1.07,2.88,2.86,0,1.54-1.22,2.82-3.46,2.82-1.34,0-2.62-.56-3.52-1.3Z"/><path d="M441.74,26.97v-5.23h-1.4v-1.2l1.48-.1,.19-2.64h1.34v2.64h2.54v1.3h-2.54v5.25c0,1.17,.37,1.83,1.46,1.83,.33,0,.76-.14,1.07-.25l.31,1.2c-.52,.17-1.17,.35-1.75,.35-2.02,0-2.7-1.28-2.7-3.15Z"/><path d="M446.95,25.18c0-3.17,2.06-4.97,4.37-4.97s4.37,1.81,4.37,4.97-2.06,4.94-4.37,4.94-4.37-1.81-4.37-4.94Zm7.09,0c0-2.18-1.09-3.65-2.72-3.65s-2.72,1.48-2.72,3.65,1.11,3.61,2.72,3.61,2.72-1.46,2.72-3.61Z"/><path d="M457.8,20.44h1.32l.14,1.36h.06c.82-.89,1.81-1.59,2.93-1.59,1.44,0,2.21,.68,2.6,1.81,.99-1.07,1.96-1.81,3.11-1.81,1.94,0,2.88,1.28,2.88,3.69v5.98h-1.59v-5.77c0-1.77-.56-2.53-1.75-2.53-.74,0-1.5,.49-2.37,1.46v6.84h-1.59v-5.77c0-1.77-.56-2.53-1.77-2.53-.7,0-1.5,.49-2.37,1.46v6.84h-1.59v-9.44Z"/><path d="M472.82,25.18c0-3.09,2.08-4.97,4.24-4.97,2.41,0,3.77,1.73,3.77,4.43,0,.33-.02,.68-.06,.91h-6.37c.12,2,1.34,3.28,3.15,3.28,.89,0,1.65-.29,2.35-.74l.56,1.05c-.82,.52-1.83,.97-3.11,.97-2.53,0-4.53-1.85-4.53-4.94Zm6.61-.78c0-1.9-.85-2.93-2.33-2.93-1.32,0-2.53,1.07-2.72,2.93h5.05Z"/><path d="M482.77,20.44h1.32l.14,1.71h.06c.64-1.19,1.61-1.94,2.68-1.94,.41,0,.7,.06,1.01,.19l-.31,1.4c-.31-.1-.52-.16-.91-.16-.8,0-1.75,.58-2.39,2.18v6.06h-1.59v-9.44Z"/><path d="M488.07,28.81l.8-1.07c.82,.66,1.65,1.13,2.78,1.13,1.24,0,1.87-.66,1.87-1.48,0-.97-1.13-1.4-2.16-1.79-1.34-.49-2.82-1.13-2.82-2.72s1.2-2.68,3.24-2.68c1.19,0,2.21,.49,2.93,1.07l-.76,1.01c-.64-.49-1.32-.84-2.16-.84-1.19,0-1.73,.64-1.73,1.36,0,.89,1.03,1.22,2.1,1.63,1.36,.51,2.88,1.07,2.88,2.86,0,1.54-1.22,2.82-3.46,2.82-1.34,0-2.62-.56-3.52-1.3Z"/></g><g><path d="M368.72,630.08h1.61v11.37h5.58v1.38h-7.19v-12.75Z"/><path d="M377.31,638.12c0-3.17,2.06-4.97,4.37-4.97s4.37,1.81,4.37,4.97-2.06,4.94-4.37,4.94-4.37-1.81-4.37-4.94Zm7.09,0c0-2.18-1.09-3.65-2.72-3.65s-2.72,1.48-2.72,3.65,1.11,3.61,2.72,3.61,2.72-1.46,2.72-3.61Z"/><path d="M387.84,638.12c0-3.17,2.12-4.97,4.55-4.97,1.24,0,2.1,.51,2.76,1.11l-.82,1.05c-.54-.49-1.13-.84-1.88-.84-1.71,0-2.95,1.48-2.95,3.65s1.19,3.61,2.91,3.61c.87,0,1.63-.43,2.22-.95l.7,1.07c-.85,.76-1.92,1.2-3.05,1.2-2.51,0-4.43-1.81-4.43-4.94Z"/><path d="M396.82,640.38c0-2.06,1.77-3.09,5.79-3.54,0-1.2-.39-2.37-1.94-2.37-1.09,0-2.08,.5-2.82,1.01l-.62-1.11c.87-.56,2.2-1.22,3.71-1.22,2.31,0,3.28,1.54,3.28,3.89v5.79h-1.32l-.14-1.13h-.06c-.89,.74-1.94,1.36-3.13,1.36-1.57,0-2.76-.99-2.76-2.68Zm5.79,.14v-2.62c-3.15,.39-4.24,1.17-4.24,2.37,0,1.07,.74,1.52,1.67,1.52s1.65-.45,2.56-1.26Z"/><path d="M407.2,640.92v-11.93h1.59v12.05c0,.5,.21,.7,.45,.7,.1,0,.17,0,.35-.04l.21,1.2c-.21,.1-.49,.16-.91,.16-1.2,0-1.69-.76-1.69-2.14Z"/><path d="M415.46,636.45c0-4.1,2.41-6.61,5.65-6.61,1.55,0,2.76,.74,3.5,1.57l-.87,1.05c-.68-.72-1.52-1.2-2.6-1.2-2.41,0-4,1.98-4,5.15s1.54,5.23,3.94,5.23c1.22,0,2.14-.54,2.95-1.44l.89,1.01c-1.01,1.17-2.25,1.85-3.91,1.85-3.19,0-5.56-2.45-5.56-6.61Z"/><path d="M426.44,638.12c0-3.17,2.06-4.97,4.37-4.97s4.37,1.81,4.37,4.97-2.06,4.94-4.37,4.94-4.37-1.81-4.37-4.94Zm7.09,0c0-2.18-1.09-3.65-2.72-3.65s-2.72,1.48-2.72,3.65,1.11,3.61,2.72,3.61,2.72-1.46,2.72-3.61Z"/><path d="M437.67,633.38h1.32l.14,1.36h.06c.82-.89,1.81-1.59,2.93-1.59,1.44,0,2.21,.68,2.6,1.81,.99-1.07,1.96-1.81,3.11-1.81,1.94,0,2.88,1.28,2.88,3.69v5.98h-1.59v-5.77c0-1.77-.56-2.53-1.75-2.53-.74,0-1.5,.49-2.37,1.46v6.84h-1.59v-5.77c0-1.77-.56-2.53-1.77-2.53-.7,0-1.5,.49-2.37,1.46v6.84h-1.59v-9.44Z"/><path d="M453.78,633.38h1.32l.14,1.36h.06c.82-.89,1.81-1.59,2.93-1.59,1.44,0,2.21,.68,2.6,1.81,.99-1.07,1.96-1.81,3.11-1.81,1.94,0,2.88,1.28,2.88,3.69v5.98h-1.59v-5.77c0-1.77-.56-2.53-1.75-2.53-.74,0-1.5,.49-2.37,1.46v6.84h-1.59v-5.77c0-1.77-.56-2.53-1.77-2.53-.7,0-1.5,.49-2.37,1.46v6.84h-1.59v-9.44Z"/><path d="M469.75,639.37v-5.98h1.61v5.77c0,1.77,.52,2.53,1.77,2.53,.97,0,1.65-.49,2.55-1.59v-6.7h1.59v9.44h-1.32l-.14-1.48h-.06c-.87,1.03-1.81,1.71-3.11,1.71-2,0-2.89-1.28-2.89-3.69Z"/><path d="M480.46,633.38h1.32l.14,1.36h.06c.89-.89,1.87-1.59,3.17-1.59,1.98,0,2.88,1.28,2.88,3.69v5.98h-1.59v-5.77c0-1.77-.54-2.53-1.79-2.53-.97,0-1.63,.51-2.58,1.46v6.84h-1.59v-9.44Z"/><path d="M490.8,630.41c0-.62,.49-1.03,1.11-1.03s1.11,.41,1.11,1.03-.49,1.03-1.11,1.03-1.11-.43-1.11-1.03Zm.29,2.97h1.59v9.44h-1.59v-9.44Z"/><path d="M496.14,639.91v-5.23h-1.4v-1.2l1.48-.1,.19-2.64h1.34v2.64h2.55v1.3h-2.55v5.25c0,1.17,.37,1.83,1.46,1.83,.33,0,.76-.14,1.07-.25l.31,1.2c-.52,.17-1.17,.35-1.75,.35-2.02,0-2.7-1.28-2.7-3.15Z"/><path d="M502.15,630.41c0-.62,.49-1.03,1.11-1.03s1.11,.41,1.11,1.03-.49,1.03-1.11,1.03-1.11-.43-1.11-1.03Zm.29,2.97h1.59v9.44h-1.59v-9.44Z"/><path d="M506.52,638.12c0-3.09,2.08-4.97,4.24-4.97,2.41,0,3.77,1.73,3.77,4.43,0,.33-.02,.68-.06,.91h-6.37c.12,2,1.34,3.28,3.15,3.28,.89,0,1.65-.29,2.35-.74l.56,1.05c-.82,.52-1.83,.97-3.11,.97-2.53,0-4.53-1.85-4.53-4.94Zm6.61-.78c0-1.9-.86-2.93-2.33-2.93-1.32,0-2.53,1.07-2.72,2.93h5.05Z"/><path d="M515.81,641.76l.8-1.07c.82,.66,1.65,1.13,2.78,1.13,1.24,0,1.87-.66,1.87-1.48,0-.97-1.13-1.4-2.16-1.79-1.34-.49-2.82-1.13-2.82-2.72s1.2-2.68,3.24-2.68c1.19,0,2.21,.49,2.93,1.07l-.76,1.01c-.64-.49-1.32-.84-2.16-.84-1.19,0-1.73,.64-1.73,1.36,0,.89,1.03,1.22,2.1,1.63,1.36,.51,2.88,1.07,2.88,2.86,0,1.54-1.22,2.82-3.46,2.82-1.34,0-2.62-.56-3.52-1.3Z"/></g><g><path d="M681.6,141.97l.97-1.13c.91,.95,2.2,1.59,3.52,1.59,1.67,0,2.66-.84,2.66-2.08s-.91-1.71-2.12-2.25l-1.83-.8c-1.2-.51-2.58-1.42-2.58-3.28s1.69-3.38,4-3.38c1.52,0,2.86,.64,3.77,1.57l-.87,1.05c-.78-.74-1.71-1.2-2.89-1.2-1.42,0-2.37,.72-2.37,1.87,0,1.22,1.11,1.69,2.12,2.12l1.81,.78c1.48,.64,2.62,1.52,2.62,3.4,0,2.02-1.65,3.63-4.33,3.63-1.79,0-3.36-.74-4.47-1.88Z"/><path d="M692.76,129.79h1.59v3.77l-.06,1.94c.89-.85,1.85-1.55,3.15-1.55,1.98,0,2.88,1.28,2.88,3.69v5.98h-1.59v-5.77c0-1.77-.54-2.53-1.79-2.53-.97,0-1.63,.51-2.58,1.46v6.84h-1.59v-13.83Z"/><path d="M702.75,141.18c0-2.06,1.77-3.09,5.79-3.54,0-1.2-.39-2.37-1.94-2.37-1.09,0-2.08,.5-2.82,1.01l-.62-1.11c.87-.56,2.2-1.22,3.71-1.22,2.31,0,3.28,1.54,3.28,3.89v5.79h-1.32l-.14-1.13h-.06c-.89,.74-1.94,1.36-3.13,1.36-1.57,0-2.76-.99-2.76-2.68Zm5.79,.14v-2.62c-3.15,.39-4.24,1.17-4.24,2.37,0,1.07,.74,1.52,1.67,1.52s1.65-.45,2.57-1.26Z"/><path d="M713.12,134.18h1.32l.14,1.71h.06c.64-1.19,1.61-1.94,2.68-1.94,.41,0,.7,.06,1.01,.19l-.31,1.4c-.31-.1-.52-.16-.91-.16-.8,0-1.75,.58-2.39,2.18v6.06h-1.59v-9.44Z"/><path d="M719.17,138.92c0-3.09,2.08-4.97,4.24-4.97,2.41,0,3.77,1.73,3.77,4.43,0,.33-.02,.68-.06,.91h-6.37c.12,2,1.34,3.28,3.15,3.28,.89,0,1.65-.29,2.35-.74l.56,1.05c-.82,.52-1.83,.97-3.11,.97-2.53,0-4.53-1.85-4.53-4.94Zm6.61-.78c0-1.9-.86-2.93-2.33-2.93-1.32,0-2.53,1.07-2.72,2.93h5.05Z"/><path d="M729.51,129.79h1.59v3.77l-.06,1.94c.89-.85,1.85-1.55,3.15-1.55,1.98,0,2.88,1.28,2.88,3.69v5.98h-1.59v-5.77c0-1.77-.54-2.53-1.79-2.53-.97,0-1.63,.51-2.58,1.46v6.84h-1.59v-13.83Z"/><path d="M739.38,138.92c0-3.17,2.06-4.97,4.37-4.97s4.37,1.81,4.37,4.97-2.06,4.94-4.37,4.94-4.37-1.81-4.37-4.94Zm7.09,0c0-2.18-1.09-3.65-2.72-3.65s-2.72,1.48-2.72,3.65,1.11,3.61,2.72,3.61,2.72-1.46,2.72-3.61Z"/><path d="M750.61,141.72v-11.93h1.59v12.05c0,.5,.21,.7,.45,.7,.1,0,.17,0,.35-.04l.21,1.2c-.21,.1-.49,.16-.91,.16-1.2,0-1.69-.76-1.69-2.14Z"/><path d="M754.89,138.92c0-3.07,1.94-4.97,4.1-4.97,1.09,0,1.81,.41,2.64,1.09l-.08-1.61v-3.63h1.61v13.83h-1.32l-.14-1.11h-.06c-.74,.72-1.75,1.34-2.86,1.34-2.37,0-3.91-1.79-3.91-4.94Zm6.66,2.29v-4.94c-.8-.72-1.52-.99-2.29-.99-1.52,0-2.72,1.46-2.72,3.61s.95,3.61,2.6,3.61c.87,0,1.63-.43,2.41-1.3Z"/><path d="M765.65,138.92c0-3.09,2.08-4.97,4.24-4.97,2.41,0,3.77,1.73,3.77,4.43,0,.33-.02,.68-.06,.91h-6.37c.12,2,1.34,3.28,3.15,3.28,.89,0,1.65-.29,2.35-.74l.56,1.05c-.82,.52-1.83,.97-3.11,.97-2.53,0-4.53-1.85-4.53-4.94Zm6.61-.78c0-1.9-.85-2.93-2.33-2.93-1.32,0-2.53,1.07-2.72,2.93h5.05Z"/><path d="M775.99,134.18h1.32l.14,1.71h.06c.64-1.19,1.61-1.94,2.68-1.94,.41,0,.7,.06,1.01,.19l-.31,1.4c-.31-.1-.52-.16-.91-.16-.8,0-1.75,.58-2.39,2.18v6.06h-1.59v-9.44Z"/><path d="M781.68,142.56l.8-1.07c.82,.66,1.65,1.13,2.78,1.13,1.24,0,1.87-.66,1.87-1.48,0-.97-1.13-1.4-2.16-1.79-1.34-.49-2.82-1.13-2.82-2.72s1.2-2.68,3.24-2.68c1.19,0,2.21,.49,2.93,1.07l-.76,1.01c-.64-.49-1.32-.84-2.16-.84-1.19,0-1.73,.64-1.73,1.36,0,.89,1.03,1.22,2.1,1.63,1.36,.51,2.88,1.07,2.88,2.86,0,1.54-1.22,2.82-3.46,2.82-1.34,0-2.62-.56-3.52-1.3Z"/><path d="M794.66,129.83h1.17l-5.19,16.9h-1.17l5.19-16.9Z"/><path d="M713.63,154.2h1.61v12.75h-1.61v-12.75Z"/><path d="M718.59,157.5h1.32l.14,1.36h.06c.89-.89,1.87-1.59,3.17-1.59,1.98,0,2.88,1.28,2.88,3.69v5.98h-1.59v-5.77c0-1.77-.54-2.53-1.79-2.53-.97,0-1.63,.51-2.58,1.46v6.84h-1.59v-9.44Z"/><path d="M727.86,157.5h1.65l1.79,5.36c.27,.93,.58,1.88,.87,2.78h.08c.27-.89,.58-1.85,.85-2.78l1.79-5.36h1.57l-3.34,9.44h-1.87l-3.4-9.44Z"/><path d="M737.59,162.24c0-3.09,2.08-4.97,4.24-4.97,2.41,0,3.77,1.73,3.77,4.43,0,.33-.02,.68-.06,.91h-6.37c.12,2,1.34,3.28,3.15,3.28,.89,0,1.65-.29,2.35-.74l.56,1.05c-.82,.52-1.83,.97-3.11,.97-2.53,0-4.53-1.85-4.53-4.93Zm6.61-.78c0-1.9-.86-2.93-2.33-2.93-1.32,0-2.53,1.07-2.72,2.93h5.05Z"/><path d="M746.88,165.88l.8-1.07c.82,.66,1.65,1.13,2.78,1.13,1.24,0,1.87-.66,1.87-1.48,0-.97-1.13-1.4-2.16-1.79-1.34-.49-2.82-1.13-2.82-2.72s1.2-2.68,3.24-2.68c1.19,0,2.21,.49,2.93,1.07l-.76,1.01c-.64-.49-1.32-.84-2.16-.84-1.19,0-1.73,.64-1.73,1.36,0,.89,1.03,1.22,2.1,1.63,1.36,.5,2.88,1.07,2.88,2.86,0,1.53-1.22,2.82-3.46,2.82-1.34,0-2.62-.56-3.52-1.3Z"/><path d="M756.34,164.03v-5.23h-1.4v-1.2l1.48-.1,.19-2.64h1.34v2.64h2.55v1.3h-2.55v5.25c0,1.17,.37,1.83,1.46,1.83,.33,0,.76-.14,1.07-.25l.31,1.2c-.52,.18-1.17,.35-1.75,.35-2.02,0-2.7-1.28-2.7-3.15Z"/><path d="M761.94,162.24c0-3.17,2.06-4.97,4.37-4.97s4.37,1.81,4.37,4.97-2.06,4.93-4.37,4.93-4.37-1.81-4.37-4.93Zm7.09,0c0-2.18-1.09-3.65-2.72-3.65s-2.72,1.48-2.72,3.65,1.11,3.61,2.72,3.61,2.72-1.46,2.72-3.61Z"/><path d="M773.17,157.5h1.32l.14,1.71h.06c.64-1.19,1.61-1.94,2.68-1.94,.41,0,.7,.06,1.01,.19l-.31,1.4c-.31-.1-.52-.16-.91-.16-.8,0-1.75,.58-2.39,2.18v6.06h-1.59v-9.44Z"/><path d="M778.87,165.88l.8-1.07c.82,.66,1.65,1.13,2.78,1.13,1.24,0,1.87-.66,1.87-1.48,0-.97-1.13-1.4-2.16-1.79-1.34-.49-2.82-1.13-2.82-2.72s1.2-2.68,3.24-2.68c1.19,0,2.21,.49,2.93,1.07l-.76,1.01c-.64-.49-1.32-.84-2.16-.84-1.19,0-1.73,.64-1.73,1.36,0,.89,1.03,1.22,2.1,1.63,1.36,.5,2.88,1.07,2.88,2.86,0,1.53-1.22,2.82-3.46,2.82-1.34,0-2.62-.56-3.52-1.3Z"/></g><g><path d="M44.87,136.09c0-4.1,2.47-6.61,5.85-6.61,1.77,0,2.93,.8,3.67,1.57l-.89,1.05c-.64-.66-1.46-1.2-2.74-1.2-2.56,0-4.22,1.98-4.22,5.15s1.52,5.23,4.24,5.23c.91,0,1.79-.29,2.29-.76v-3.32h-2.7v-1.34h4.18v5.36c-.82,.85-2.22,1.48-3.93,1.48-3.36,0-5.75-2.45-5.75-6.61Z"/><path d="M57.44,140.56v-11.93h1.59v12.05c0,.51,.21,.7,.45,.7,.1,0,.17,0,.35-.04l.21,1.2c-.21,.1-.49,.16-.91,.16-1.2,0-1.69-.76-1.69-2.14Z"/><path d="M61.7,137.76c0-3.17,2.06-4.97,4.37-4.97s4.37,1.81,4.37,4.97-2.06,4.93-4.37,4.93-4.37-1.81-4.37-4.93Zm7.09,0c0-2.18-1.09-3.65-2.72-3.65s-2.72,1.48-2.72,3.65,1.11,3.61,2.72,3.61,2.72-1.46,2.72-3.61Z"/><path d="M74.41,141.49h-.06l-.14,.97h-1.28v-13.83h1.59v3.77l-.04,1.71c.85-.76,1.9-1.32,2.95-1.32,2.45,0,3.75,1.88,3.75,4.8,0,3.23-1.92,5.11-4.08,5.11-.87,0-1.87-.45-2.7-1.2Zm5.13-3.89c0-2.08-.7-3.48-2.49-3.48-.8,0-1.63,.45-2.53,1.28v4.95c.84,.72,1.69,.99,2.31,.99,1.55,0,2.7-1.42,2.7-3.75Z"/><path d="M83.09,140.01c0-2.06,1.77-3.09,5.79-3.54,0-1.2-.39-2.37-1.94-2.37-1.09,0-2.08,.51-2.82,1.01l-.62-1.11c.87-.56,2.2-1.22,3.71-1.22,2.31,0,3.28,1.53,3.28,3.89v5.79h-1.32l-.14-1.13h-.06c-.89,.74-1.94,1.36-3.13,1.36-1.57,0-2.76-.99-2.76-2.68Zm5.79,.14v-2.62c-3.15,.39-4.24,1.17-4.24,2.37,0,1.07,.74,1.52,1.67,1.52s1.65-.45,2.57-1.26Z"/><path d="M93.47,140.56v-11.93h1.59v12.05c0,.51,.21,.7,.45,.7,.1,0,.17,0,.35-.04l.21,1.2c-.21,.1-.49,.16-.91,.16-1.2,0-1.69-.76-1.69-2.14Z"/><path d="M102.47,129.71h7.34v1.36h-5.73v4h4.84v1.38h-4.84v4.62h5.93v1.38h-7.54v-12.75Z"/><path d="M112.55,133.02h1.32l.14,1.36h.06c.89-.89,1.87-1.59,3.17-1.59,1.98,0,2.88,1.28,2.88,3.69v5.98h-1.59v-5.77c0-1.77-.54-2.53-1.79-2.53-.97,0-1.63,.51-2.58,1.46v6.84h-1.59v-9.44Z"/><path d="M121.82,133.02h1.65l1.79,5.36c.27,.93,.58,1.88,.87,2.78h.08c.27-.89,.58-1.85,.85-2.78l1.79-5.36h1.57l-3.34,9.44h-1.87l-3.4-9.44Z"/><path d="M131.97,130.04c0-.62,.49-1.03,1.11-1.03s1.11,.41,1.11,1.03-.49,1.03-1.11,1.03-1.11-.43-1.11-1.03Zm.29,2.97h1.59v9.44h-1.59v-9.44Z"/><path d="M137.04,133.02h1.32l.14,1.71h.06c.64-1.19,1.61-1.94,2.68-1.94,.41,0,.7,.06,1.01,.19l-.31,1.4c-.31-.1-.52-.16-.91-.16-.8,0-1.75,.58-2.39,2.18v6.06h-1.59v-9.44Z"/><path d="M143.08,137.76c0-3.17,2.06-4.97,4.37-4.97s4.37,1.81,4.37,4.97-2.06,4.93-4.37,4.93-4.37-1.81-4.37-4.93Zm7.09,0c0-2.18-1.09-3.65-2.72-3.65s-2.72,1.48-2.72,3.65,1.11,3.61,2.72,3.61,2.72-1.46,2.72-3.61Z"/><path d="M154.32,133.02h1.32l.14,1.36h.06c.89-.89,1.87-1.59,3.17-1.59,1.98,0,2.88,1.28,2.88,3.69v5.98h-1.59v-5.77c0-1.77-.54-2.53-1.79-2.53-.97,0-1.63,.51-2.58,1.46v6.84h-1.59v-9.44Z"/><path d="M164.94,133.02h1.32l.14,1.36h.06c.82-.89,1.81-1.59,2.93-1.59,1.44,0,2.21,.68,2.6,1.81,.99-1.07,1.96-1.81,3.11-1.81,1.94,0,2.88,1.28,2.88,3.69v5.98h-1.59v-5.77c0-1.77-.56-2.53-1.75-2.53-.74,0-1.5,.49-2.37,1.46v6.84h-1.59v-5.77c0-1.77-.56-2.53-1.77-2.53-.7,0-1.5,.49-2.37,1.46v6.84h-1.59v-9.44Z"/><path d="M180.35,137.76c0-3.09,2.08-4.97,4.24-4.97,2.41,0,3.77,1.73,3.77,4.43,0,.33-.02,.68-.06,.91h-6.37c.12,2,1.34,3.28,3.15,3.28,.89,0,1.65-.29,2.35-.74l.56,1.05c-.82,.52-1.83,.97-3.11,.97-2.53,0-4.53-1.85-4.53-4.93Zm6.61-.78c0-1.9-.86-2.93-2.33-2.93-1.32,0-2.53,1.07-2.72,2.93h5.05Z"/><path d="M190.69,133.02h1.32l.14,1.36h.06c.89-.89,1.87-1.59,3.17-1.59,1.98,0,2.88,1.28,2.88,3.69v5.98h-1.59v-5.77c0-1.77-.54-2.53-1.79-2.53-.97,0-1.63,.51-2.58,1.46v6.84h-1.59v-9.44Z"/><path d="M201.59,139.55v-5.23h-1.4v-1.2l1.48-.1,.19-2.64h1.34v2.64h2.54v1.3h-2.54v5.25c0,1.17,.37,1.83,1.46,1.83,.33,0,.76-.14,1.07-.25l.31,1.2c-.52,.18-1.17,.35-1.75,.35-2.02,0-2.7-1.28-2.7-3.15Z"/></g><g><path d="M73.44,518.78c0-4.1,2.47-6.61,5.85-6.61,1.77,0,2.93,.8,3.67,1.57l-.89,1.05c-.64-.66-1.46-1.2-2.74-1.2-2.56,0-4.22,1.98-4.22,5.15s1.52,5.23,4.24,5.23c.91,0,1.79-.29,2.29-.76v-3.32h-2.7v-1.34h4.18v5.36c-.82,.85-2.22,1.48-3.93,1.48-3.36,0-5.75-2.45-5.75-6.61Z"/><path d="M85.31,520.45c0-3.17,2.06-4.97,4.37-4.97s4.37,1.81,4.37,4.97-2.06,4.94-4.37,4.94-4.37-1.81-4.37-4.94Zm7.09,0c0-2.18-1.09-3.65-2.72-3.65s-2.72,1.48-2.72,3.65,1.11,3.61,2.72,3.61,2.72-1.46,2.72-3.61Z"/><path d="M95.18,515.71h1.65l1.79,5.36c.27,.93,.58,1.89,.87,2.78h.08c.27-.89,.58-1.85,.85-2.78l1.79-5.36h1.57l-3.34,9.44h-1.87l-3.4-9.44Z"/><path d="M104.92,520.45c0-3.09,2.08-4.97,4.24-4.97,2.41,0,3.77,1.73,3.77,4.43,0,.33-.02,.68-.06,.91h-6.37c.12,2,1.34,3.28,3.15,3.28,.89,0,1.65-.29,2.35-.74l.56,1.05c-.82,.52-1.83,.97-3.11,.97-2.53,0-4.53-1.85-4.53-4.94Zm6.61-.78c0-1.9-.86-2.93-2.33-2.93-1.32,0-2.53,1.07-2.72,2.93h5.05Z"/><path d="M115.26,515.71h1.32l.14,1.71h.06c.64-1.19,1.61-1.94,2.68-1.94,.41,0,.7,.06,1.01,.19l-.31,1.4c-.31-.1-.52-.16-.91-.16-.8,0-1.75,.58-2.39,2.18v6.06h-1.59v-9.44Z"/><path d="M122,515.71h1.32l.14,1.36h.06c.89-.89,1.87-1.59,3.17-1.59,1.98,0,2.88,1.28,2.88,3.69v5.98h-1.59v-5.77c0-1.77-.54-2.53-1.79-2.53-.97,0-1.63,.51-2.58,1.46v6.84h-1.59v-9.44Z"/><path d="M132.63,515.71h1.32l.14,1.36h.06c.82-.89,1.81-1.59,2.93-1.59,1.44,0,2.21,.68,2.6,1.81,.99-1.07,1.96-1.81,3.11-1.81,1.94,0,2.88,1.28,2.88,3.69v5.98h-1.59v-5.77c0-1.77-.56-2.53-1.75-2.53-.74,0-1.5,.49-2.37,1.46v6.84h-1.59v-5.77c0-1.77-.56-2.53-1.77-2.53-.7,0-1.5,.49-2.37,1.46v6.84h-1.59v-9.44Z"/><path d="M148.04,520.45c0-3.09,2.08-4.97,4.24-4.97,2.41,0,3.77,1.73,3.77,4.43,0,.33-.02,.68-.06,.91h-6.37c.12,2,1.34,3.28,3.15,3.28,.89,0,1.65-.29,2.35-.74l.56,1.05c-.82,.52-1.83,.97-3.11,.97-2.53,0-4.53-1.85-4.53-4.94Zm6.61-.78c0-1.9-.85-2.93-2.33-2.93-1.32,0-2.53,1.07-2.72,2.93h5.05Z"/><path d="M158.38,515.71h1.32l.14,1.36h.06c.89-.89,1.87-1.59,3.17-1.59,1.98,0,2.88,1.28,2.88,3.69v5.98h-1.59v-5.77c0-1.77-.54-2.53-1.79-2.53-.97,0-1.63,.51-2.58,1.46v6.84h-1.59v-9.44Z"/><path d="M169.28,522.24v-5.23h-1.4v-1.2l1.48-.1,.19-2.64h1.34v2.64h2.54v1.3h-2.54v5.25c0,1.17,.37,1.83,1.46,1.83,.33,0,.76-.14,1.07-.25l.31,1.2c-.52,.17-1.17,.35-1.75,.35-2.02,0-2.7-1.28-2.7-3.15Z"/><path d="M174.53,524.09l.8-1.07c.82,.66,1.65,1.13,2.78,1.13,1.24,0,1.87-.66,1.87-1.48,0-.97-1.13-1.4-2.16-1.79-1.34-.49-2.82-1.13-2.82-2.72s1.2-2.68,3.24-2.68c1.19,0,2.21,.49,2.93,1.07l-.76,1.01c-.64-.49-1.32-.84-2.16-.84-1.19,0-1.73,.64-1.73,1.36,0,.89,1.03,1.22,2.1,1.63,1.36,.51,2.88,1.07,2.88,2.86,0,1.54-1.22,2.82-3.46,2.82-1.34,0-2.62-.56-3.52-1.3Z"/><path d="M187.02,522.71c0-2.06,1.77-3.09,5.79-3.54,0-1.2-.39-2.37-1.94-2.37-1.09,0-2.08,.5-2.82,1.01l-.62-1.11c.87-.56,2.2-1.22,3.71-1.22,2.31,0,3.28,1.54,3.28,3.89v5.79h-1.32l-.14-1.13h-.06c-.89,.74-1.94,1.36-3.13,1.36-1.57,0-2.76-.99-2.76-2.68Zm5.79,.14v-2.62c-3.15,.39-4.24,1.17-4.24,2.37,0,1.07,.74,1.52,1.67,1.52s1.65-.45,2.56-1.26Z"/><path d="M197.4,515.71h1.32l.14,1.36h.06c.89-.89,1.87-1.59,3.17-1.59,1.98,0,2.88,1.28,2.88,3.69v5.98h-1.59v-5.77c0-1.77-.54-2.53-1.79-2.53-.97,0-1.63,.51-2.58,1.46v6.84h-1.59v-9.44Z"/><path d="M207.35,520.45c0-3.07,1.94-4.97,4.1-4.97,1.09,0,1.81,.41,2.64,1.09l-.08-1.61v-3.63h1.61v13.83h-1.32l-.14-1.11h-.06c-.74,.72-1.75,1.34-2.86,1.34-2.37,0-3.91-1.79-3.91-4.94Zm6.66,2.29v-4.94c-.8-.72-1.52-.99-2.29-.99-1.52,0-2.72,1.46-2.72,3.61s.95,3.61,2.6,3.61c.87,0,1.63-.43,2.41-1.3Z"/><path d="M108.86,535.73h3.63c2.86,0,4.78,.95,4.78,3.75s-1.9,3.94-4.7,3.94h-2.1v5.05h-1.61v-12.75Zm3.52,6.37c2.21,0,3.28-.82,3.28-2.62s-1.13-2.45-3.36-2.45h-1.83v5.07h1.9Z"/><path d="M119.57,545.02v-5.98h1.61v5.77c0,1.77,.52,2.53,1.77,2.53,.97,0,1.65-.49,2.55-1.59v-6.7h1.59v9.44h-1.32l-.14-1.48h-.06c-.87,1.03-1.81,1.71-3.11,1.71-2,0-2.89-1.28-2.89-3.69Z"/><path d="M131.76,547.5h-.06l-.14,.97h-1.28v-13.83h1.59v3.77l-.04,1.71c.85-.76,1.9-1.32,2.95-1.32,2.45,0,3.75,1.88,3.75,4.8,0,3.23-1.92,5.11-4.08,5.11-.87,0-1.87-.45-2.7-1.2Zm5.13-3.89c0-2.08-.7-3.48-2.49-3.48-.8,0-1.63,.45-2.53,1.28v4.95c.84,.72,1.69,.99,2.31,.99,1.55,0,2.7-1.42,2.7-3.75Z"/><path d="M141.02,546.57v-11.93h1.59v12.05c0,.51,.21,.7,.45,.7,.1,0,.17,0,.35-.04l.21,1.2c-.21,.1-.49,.16-.91,.16-1.2,0-1.69-.76-1.69-2.14Z"/><path d="M145.69,536.06c0-.62,.49-1.03,1.11-1.03s1.11,.41,1.11,1.03-.49,1.03-1.11,1.03-1.11-.43-1.11-1.03Zm.29,2.97h1.59v9.44h-1.59v-9.44Z"/><path d="M150.06,543.77c0-3.17,2.12-4.97,4.55-4.97,1.24,0,2.1,.5,2.76,1.11l-.82,1.05c-.54-.49-1.13-.84-1.88-.84-1.71,0-2.95,1.48-2.95,3.65s1.19,3.61,2.91,3.61c.87,0,1.63-.43,2.22-.95l.7,1.07c-.85,.76-1.92,1.2-3.05,1.2-2.51,0-4.43-1.81-4.43-4.93Z"/><path d="M163.66,535.73h3.79c2.58,0,4.37,.87,4.37,3.11,0,1.26-.66,2.39-1.87,2.78v.08c1.54,.29,2.6,1.3,2.6,3.05,0,2.51-1.98,3.73-4.84,3.73h-4.06v-12.75Zm3.5,5.42c2.18,0,3.07-.8,3.07-2.1,0-1.48-1.01-2.04-2.99-2.04h-1.96v4.14h1.88Zm.33,6.04c2.2,0,3.48-.8,3.48-2.51,0-1.57-1.24-2.29-3.48-2.29h-2.22v4.8h2.22Z"/><path d="M174.24,543.77c0-3.17,2.06-4.97,4.37-4.97s4.37,1.81,4.37,4.97-2.06,4.93-4.37,4.93-4.37-1.81-4.37-4.93Zm7.09,0c0-2.18-1.09-3.65-2.72-3.65s-2.72,1.48-2.72,3.65,1.11,3.61,2.72,3.61,2.72-1.46,2.72-3.61Z"/><path d="M184.79,543.77c0-3.07,1.94-4.97,4.1-4.97,1.09,0,1.81,.41,2.64,1.09l-.08-1.61v-3.63h1.61v13.83h-1.32l-.14-1.11h-.06c-.74,.72-1.75,1.34-2.86,1.34-2.37,0-3.91-1.79-3.91-4.93Zm6.66,2.29v-4.93c-.8-.72-1.52-.99-2.29-.99-1.52,0-2.72,1.46-2.72,3.61s.95,3.61,2.6,3.61c.87,0,1.63-.43,2.41-1.3Z"/><path d="M195.96,536.06c0-.62,.49-1.03,1.11-1.03s1.11,.41,1.11,1.03-.49,1.03-1.11,1.03-1.11-.43-1.11-1.03Zm.29,2.97h1.59v9.44h-1.59v-9.44Z"/><path d="M200.33,543.77c0-3.09,2.08-4.97,4.24-4.97,2.41,0,3.77,1.73,3.77,4.43,0,.33-.02,.68-.06,.91h-6.37c.12,2,1.34,3.28,3.15,3.28,.89,0,1.65-.29,2.35-.74l.56,1.05c-.82,.52-1.83,.97-3.11,.97-2.53,0-4.53-1.85-4.53-4.93Zm6.61-.78c0-1.9-.85-2.93-2.33-2.93-1.32,0-2.53,1.07-2.72,2.93h5.05Z"/><path d="M209.62,547.41l.8-1.07c.82,.66,1.65,1.13,2.78,1.13,1.24,0,1.87-.66,1.87-1.48,0-.97-1.13-1.4-2.16-1.79-1.34-.49-2.82-1.13-2.82-2.72s1.2-2.68,3.24-2.68c1.19,0,2.21,.49,2.93,1.07l-.76,1.01c-.64-.49-1.32-.84-2.16-.84-1.19,0-1.73,.64-1.73,1.36,0,.89,1.03,1.22,2.1,1.63,1.36,.5,2.88,1.07,2.88,2.86,0,1.53-1.22,2.82-3.46,2.82-1.34,0-2.62-.56-3.52-1.3Z"/></g><g><path d="M689.96,514.72h7.34v1.36h-5.73v4h4.84v1.38h-4.84v4.62h5.93v1.38h-7.54v-12.75Z"/><path d="M700.05,518.03h1.32l.14,1.36h.06c.82-.89,1.81-1.59,2.93-1.59,1.44,0,2.21,.68,2.6,1.81,.99-1.07,1.96-1.81,3.11-1.81,1.94,0,2.88,1.28,2.88,3.69v5.98h-1.59v-5.77c0-1.77-.56-2.53-1.75-2.53-.74,0-1.5,.49-2.37,1.46v6.84h-1.59v-5.77c0-1.77-.56-2.53-1.77-2.53-.7,0-1.5,.49-2.37,1.46v6.84h-1.59v-9.44Z"/><path d="M716.16,518.03h1.32l.14,1.09h.06c.85-.72,1.9-1.32,3.01-1.32,2.43,0,3.73,1.88,3.73,4.82,0,3.21-1.92,5.09-4.08,5.09-.87,0-1.75-.41-2.62-1.09l.04,1.65v3.19h-1.59v-13.43Zm6.61,4.59c0-2.08-.7-3.48-2.49-3.48-.8,0-1.59,.45-2.53,1.28v4.95c.85,.72,1.69,.99,2.31,.99,1.55,0,2.7-1.42,2.7-3.75Z"/><path d="M726.94,525.57v-11.93h1.59v12.05c0,.51,.21,.7,.45,.7,.1,0,.17,0,.35-.04l.21,1.2c-.21,.1-.49,.16-.91,.16-1.2,0-1.69-.76-1.69-2.14Z"/><path d="M731.2,522.77c0-3.17,2.06-4.97,4.37-4.97s4.37,1.81,4.37,4.97-2.06,4.93-4.37,4.93-4.37-1.81-4.37-4.93Zm7.09,0c0-2.18-1.09-3.65-2.72-3.65s-2.72,1.48-2.72,3.65,1.11,3.61,2.72,3.61,2.72-1.46,2.72-3.61Z"/><path d="M741.48,531.34l.31-1.26c.19,.06,.49,.14,.72,.14,1.07,0,1.75-.85,2.14-2.02l.21-.7-3.79-9.46h1.65l1.92,5.23c.29,.82,.62,1.79,.91,2.66h.08c.27-.85,.54-1.83,.8-2.66l1.69-5.23h1.55l-3.56,10.22c-.66,1.87-1.63,3.28-3.54,3.28-.43,0-.8-.08-1.11-.19Z"/><path d="M750.81,522.77c0-3.09,2.08-4.97,4.24-4.97,2.41,0,3.77,1.73,3.77,4.43,0,.33-.02,.68-.06,.91h-6.37c.12,2,1.34,3.28,3.15,3.28,.89,0,1.65-.29,2.35-.74l.56,1.05c-.82,.52-1.83,.97-3.11,.97-2.53,0-4.53-1.85-4.53-4.93Zm6.61-.78c0-1.9-.86-2.93-2.33-2.93-1.32,0-2.53,1.07-2.72,2.93h5.05Z"/><path d="M760.45,522.77c0-3.09,2.08-4.97,4.24-4.97,2.41,0,3.77,1.73,3.77,4.43,0,.33-.02,.68-.06,.91h-6.37c.12,2,1.34,3.28,3.15,3.28,.89,0,1.65-.29,2.35-.74l.56,1.05c-.82,.52-1.83,.97-3.11,.97-2.53,0-4.53-1.85-4.53-4.93Zm6.61-.78c0-1.9-.85-2.93-2.33-2.93-1.32,0-2.53,1.07-2.72,2.93h5.05Z"/><path d="M769.73,526.4l.8-1.07c.82,.66,1.65,1.13,2.78,1.13,1.24,0,1.87-.66,1.87-1.48,0-.97-1.13-1.4-2.16-1.79-1.34-.49-2.82-1.13-2.82-2.72s1.2-2.68,3.24-2.68c1.19,0,2.21,.49,2.93,1.07l-.76,1.01c-.64-.49-1.32-.84-2.16-.84-1.19,0-1.73,.64-1.73,1.36,0,.89,1.03,1.22,2.1,1.63,1.36,.5,2.88,1.07,2.88,2.86,0,1.53-1.22,2.82-3.46,2.82-1.34,0-2.62-.56-3.52-1.3Z"/></g><g><path d="M756.3,331.83l.97-1.13c.91,.95,2.2,1.59,3.52,1.59,1.67,0,2.66-.84,2.66-2.08s-.91-1.71-2.12-2.25l-1.83-.8c-1.2-.51-2.58-1.42-2.58-3.28s1.69-3.38,4-3.38c1.52,0,2.86,.64,3.77,1.57l-.87,1.05c-.78-.74-1.71-1.2-2.89-1.2-1.42,0-2.37,.72-2.37,1.87,0,1.22,1.11,1.69,2.12,2.12l1.81,.78c1.48,.64,2.62,1.52,2.62,3.4,0,2.02-1.65,3.63-4.33,3.63-1.79,0-3.36-.74-4.47-1.88Z"/><path d="M767.32,330.03v-5.98h1.61v5.77c0,1.77,.52,2.53,1.77,2.53,.97,0,1.65-.49,2.55-1.59v-6.7h1.59v9.44h-1.32l-.14-1.48h-.06c-.87,1.03-1.81,1.71-3.11,1.71-2,0-2.89-1.28-2.89-3.69Z"/><path d="M778.03,324.04h1.32l.14,1.09h.06c.85-.72,1.9-1.32,3.01-1.32,2.43,0,3.73,1.88,3.73,4.82,0,3.21-1.92,5.09-4.08,5.09-.87,0-1.75-.41-2.62-1.09l.04,1.65v3.19h-1.59v-13.43Zm6.61,4.59c0-2.08-.7-3.48-2.49-3.48-.8,0-1.59,.45-2.53,1.28v4.95c.85,.72,1.69,.99,2.31,.99,1.55,0,2.7-1.42,2.7-3.75Z"/><path d="M788.82,324.04h1.32l.14,1.09h.06c.85-.72,1.9-1.32,3.01-1.32,2.43,0,3.73,1.88,3.73,4.82,0,3.21-1.92,5.09-4.08,5.09-.87,0-1.75-.41-2.62-1.09l.04,1.65v3.19h-1.59v-13.43Zm6.61,4.59c0-2.08-.7-3.48-2.49-3.48-.8,0-1.59,.45-2.53,1.28v4.95c.85,.72,1.69,.99,2.31,.99,1.55,0,2.7-1.42,2.7-3.75Z"/><path d="M799.6,331.58v-11.93h1.59v12.05c0,.51,.21,.7,.45,.7,.1,0,.17,0,.35-.04l.21,1.2c-.21,.1-.49,.16-.91,.16-1.2,0-1.69-.76-1.69-2.14Z"/><path d="M804.26,321.07c0-.62,.49-1.03,1.11-1.03s1.11,.41,1.11,1.03-.49,1.03-1.11,1.03-1.11-.43-1.11-1.03Zm.29,2.97h1.59v9.44h-1.59v-9.44Z"/><path d="M808.64,328.78c0-3.09,2.08-4.97,4.24-4.97,2.41,0,3.77,1.73,3.77,4.43,0,.33-.02,.68-.06,.91h-6.37c.12,2,1.34,3.28,3.15,3.28,.89,0,1.65-.29,2.35-.74l.56,1.05c-.82,.52-1.83,.97-3.11,.97-2.53,0-4.53-1.85-4.53-4.93Zm6.61-.78c0-1.9-.86-2.93-2.33-2.93-1.32,0-2.53,1.07-2.72,2.93h5.05Z"/><path d="M818.98,324.04h1.32l.14,1.71h.06c.64-1.19,1.61-1.94,2.68-1.94,.41,0,.7,.06,1.01,.19l-.31,1.4c-.31-.1-.52-.16-.91-.16-.8,0-1.75,.58-2.39,2.18v6.06h-1.59v-9.44Z"/><path d="M824.67,332.42l.8-1.07c.82,.66,1.65,1.13,2.78,1.13,1.24,0,1.87-.66,1.87-1.48,0-.97-1.13-1.4-2.16-1.79-1.34-.49-2.82-1.13-2.82-2.72s1.2-2.68,3.24-2.68c1.19,0,2.21,.49,2.93,1.07l-.76,1.01c-.64-.49-1.32-.84-2.16-.84-1.19,0-1.73,.64-1.73,1.36,0,.89,1.03,1.22,2.1,1.63,1.36,.5,2.88,1.07,2.88,2.86,0,1.53-1.22,2.82-3.46,2.82-1.34,0-2.62-.56-3.52-1.3Z"/></g><g><path d="M53.6,321.85h1.67l4.6,8,1.38,2.64h.08c-.08-1.28-.19-2.72-.19-4.06v-6.59h1.53v12.75h-1.67l-4.62-8.02-1.38-2.62h-.08c.1,1.28,.21,2.64,.21,3.98v6.66h-1.54v-12.75Z"/><path d="M66.18,321.85h3.63c2.86,0,4.78,.95,4.78,3.75s-1.9,3.94-4.7,3.94h-2.1v5.05h-1.61v-12.75Zm3.52,6.37c2.21,0,3.28-.82,3.28-2.62s-1.13-2.45-3.36-2.45h-1.83v5.07h1.9Z"/><path d="M76.44,328.16c0-4.08,2.23-6.55,5.44-6.55s5.46,2.49,5.46,6.55-2.25,6.66-5.46,6.66-5.44-2.56-5.44-6.66Zm9.21,0c0-3.17-1.5-5.13-3.77-5.13s-3.77,1.96-3.77,5.13,1.5,5.25,3.77,5.25,3.77-2.06,3.77-5.25Z"/><path d="M88.88,333.53l.8-1.07c.82,.66,1.65,1.13,2.78,1.13,1.24,0,1.87-.66,1.87-1.48,0-.97-1.13-1.4-2.16-1.79-1.34-.49-2.82-1.13-2.82-2.72s1.2-2.68,3.24-2.68c1.19,0,2.21,.49,2.93,1.07l-.76,1.01c-.64-.49-1.32-.84-2.16-.84-1.19,0-1.73,.64-1.73,1.36,0,.89,1.03,1.22,2.1,1.63,1.36,.51,2.88,1.07,2.88,2.86,0,1.54-1.22,2.82-3.46,2.82-1.34,0-2.62-.56-3.52-1.3Z"/><path d="M101.86,320.8h1.17l-5.19,16.9h-1.17l5.19-16.9Z"/><path d="M105.02,321.85h1.67l4.6,8,1.38,2.64h.08c-.08-1.28-.19-2.72-.19-4.06v-6.59h1.53v12.75h-1.67l-4.62-8.02-1.38-2.62h-.08c.1,1.28,.21,2.64,.21,3.98v6.66h-1.54v-12.75Z"/><path d="M116.86,328.22c0-4.1,2.47-6.61,5.85-6.61,1.77,0,2.93,.8,3.67,1.57l-.89,1.05c-.64-.66-1.46-1.2-2.74-1.2-2.56,0-4.22,1.98-4.22,5.15s1.52,5.23,4.24,5.23c.91,0,1.79-.29,2.29-.76v-3.32h-2.7v-1.34h4.18v5.36c-.82,.85-2.21,1.48-3.92,1.48-3.36,0-5.75-2.45-5.75-6.61Z"/><path d="M128.85,328.16c0-4.08,2.23-6.55,5.44-6.55s5.46,2.49,5.46,6.55-2.25,6.66-5.46,6.66-5.44-2.56-5.44-6.66Zm9.21,0c0-3.17-1.5-5.13-3.77-5.13s-3.77,1.96-3.77,5.13,1.5,5.25,3.77,5.25,3.77-2.06,3.77-5.25Z"/><path d="M141.29,333.53l.8-1.07c.82,.66,1.65,1.13,2.78,1.13,1.24,0,1.87-.66,1.87-1.48,0-.97-1.13-1.4-2.16-1.79-1.34-.49-2.82-1.13-2.82-2.72s1.2-2.68,3.24-2.68c1.19,0,2.21,.49,2.93,1.07l-.76,1.01c-.64-.49-1.32-.84-2.16-.84-1.19,0-1.73,.64-1.73,1.36,0,.89,1.03,1.22,2.1,1.63,1.36,.51,2.88,1.07,2.88,2.86,0,1.54-1.22,2.82-3.46,2.82-1.34,0-2.62-.56-3.52-1.3Z"/></g></g></g></g></svg>